<svg width="1315" height="814" viewBox="0 0 1315 814" fill="none" xmlns="http://www.w3.org/2000/svg">
<path d="M1314 28V659.683C1268.34 827.319 1020.31 887.005 924.876 692.09C557.181 799.281 583.687 659.683 583.687 525.07C583.687 525.07 609.628 278.779 341.753 283.266C73.8776 287.753 49.3328 127.687 0 28H1314Z" fill="#3750B2" fill-opacity="0.4"/>
<path d="M1314 28V659.683C1268.34 827.319 1020.31 887.005 924.876 692.09C557.181 799.281 583.687 659.683 583.687 525.07C583.687 525.07 609.628 278.779 341.753 283.266C73.8776 287.753 49.3328 127.687 0 28H1314Z" fill="url(#paint0_linear)"/>
<path d="M1314 1V632.683C1270.32 800.319 1033.05 860.005 941.755 665.09C590.011 772.281 615.367 632.683 615.367 498.07C615.367 498.07 640.183 251.779 383.928 256.266C127.673 260.753 104.193 100.687 57 1H1314Z" fill="#E8F5FF" stroke="white"/>
<path d="M1314 1V632.683C1270.32 800.319 1033.05 860.005 941.755 665.09C590.011 772.281 615.367 632.683 615.367 498.07C615.367 498.07 640.183 251.779 383.928 256.266C127.673 260.753 104.193 100.687 57 1H1314Z" fill="#E8F5FF" stroke="white"/>
<defs>
<linearGradient id="paint0_linear" x1="657" y1="28" x2="657" y2="814" gradientUnits="userSpaceOnUse">
<stop stop-color="#F9F9F9"/>
<stop offset="1" stop-color="#2E447C" stop-opacity="0"/>
</linearGradient>
</defs>
</svg>
