<svg width="25" height="26" viewBox="0 0 25 26" fill="none" xmlns="http://www.w3.org/2000/svg">
<path d="M24.2908 9.13631L16.3893 1.18066C15.9628 0.751234 15.394 0.514709 14.7876 0.514709C14.1812 0.514709 13.6124 0.751135 13.1858 1.18056L0.661405 13.7911C0.234911 14.2205 0 14.7932 0 15.4038C0 16.0143 0.234911 16.5871 0.661405 17.0164L1.63575 17.9975C1.63585 17.9975 1.63589 17.9976 1.63599 17.9977C1.63609 17.9978 1.63619 17.9979 1.63628 17.998L8.18454 24.5912H7.27784C6.99079 24.5912 6.75802 24.8256 6.75802 25.1146C6.75802 25.4037 6.99079 25.638 7.27784 25.638H10.1625C10.1632 25.638 10.1638 25.6381 10.1645 25.6381C10.1652 25.6381 10.1658 25.638 10.1665 25.638L17.6745 25.6381C17.9616 25.6381 18.1944 25.4038 18.1944 25.1147C18.1944 24.8257 17.9616 24.5913 17.6745 24.5913L12.1447 24.5912L24.2908 12.3617C25.1739 11.4724 25.1739 10.0255 24.2908 9.13631ZM23.5556 11.6215L11.0311 24.232C10.8014 24.4633 10.4944 24.5908 10.1664 24.5912H10.1625C9.83462 24.5907 9.52767 24.4633 9.29808 24.232L2.73876 17.6276L14.7667 5.51695C14.9697 5.31257 14.9697 4.98114 14.7667 4.77676C14.5637 4.57237 14.2346 4.57237 14.0315 4.7768L2.00356 16.8875L1.3965 16.2762C1.16641 16.0446 1.0397 15.7347 1.0397 15.4038C1.0397 15.0729 1.16641 14.763 1.39655 14.5313L13.921 1.9208C14.1511 1.68914 14.4589 1.56155 14.7876 1.56155C15.1163 1.56155 15.424 1.68913 15.6542 1.92085L18.4664 4.75237L6.43831 16.8632C6.23532 17.0675 6.23532 17.3989 6.43831 17.6034C6.53983 17.7056 6.67288 17.7567 6.80588 17.7567C6.93888 17.7567 7.07193 17.7055 7.17345 17.6034L19.2016 5.49261L23.5556 9.87645C24.0334 10.3575 24.0334 11.1404 23.5556 11.6215Z" fill="#3750B2"/>
</svg>
