<svg width="14" height="14" viewBox="0 0 14 14" fill="none" xmlns="http://www.w3.org/2000/svg">
<path d="M7.00003 3.01333C8.22058 3.01333 9.04392 3.54056 9.51336 3.98111L11.3478 2.19C10.2211 1.14278 8.75503 0.5 7.00003 0.5C4.4578 0.5 2.26225 1.95889 1.19336 4.08222L3.29503 5.71445C3.82225 4.14722 5.28114 3.01333 7.00003 3.01333Z" fill="#EA4335"/>
<path d="M13.24 7.14445C13.24 6.61 13.1967 6.22 13.1028 5.81556H7V8.22778H10.5822C10.51 8.82723 10.12 9.73 9.25333 10.3367L11.3044 11.9256C12.5322 10.7917 13.24 9.12334 13.24 7.14445Z" fill="#4285F4"/>
<path d="M3.30222 8.28555C3.165 7.8811 3.08555 7.44777 3.08555 6.99999C3.08555 6.55221 3.165 6.11888 3.295 5.71444L1.19333 4.08221C0.752778 4.96333 0.5 5.95277 0.5 6.99999C0.5 8.04721 0.752778 9.03666 1.19333 9.91777L3.30222 8.28555Z" fill="#FBBC05"/>
<path d="M6.99989 13.5C8.75489 13.5 10.2282 12.9222 11.3043 11.9256L9.25322 10.3367C8.70433 10.7195 7.96766 10.9867 6.99989 10.9867C5.281 10.9867 3.82211 9.85278 3.30211 8.28556L1.20044 9.91778C2.26933 12.0411 4.45766 13.5 6.99989 13.5Z" fill="#34A853"/>
</svg>
