<svg width="23" height="24" viewBox="0 0 23 24" fill="none" xmlns="http://www.w3.org/2000/svg">
<path d="M17.5852 17.3278L15.3292 16.6153L14.5193 15.0803C15.2489 14.3765 15.7555 13.4454 15.9263 12.4741L16.0273 11.9004H16.8912C17.6763 11.9004 18.3151 11.295 18.3151 10.551V7.71723C18.3151 3.99692 15.1212 0.970215 11.1953 0.970215C7.25942 0.970215 4.07554 3.98824 4.07554 7.71723V10.551C4.07554 11.1373 4.4724 11.6373 5.02485 11.823V12.3502C5.02485 13.0942 5.66363 13.6996 6.4488 13.6996H6.86564C7.07141 14.1232 7.33773 14.5155 7.66183 14.8679C7.72904 14.9411 7.79914 15.0121 7.87096 15.0811L7.06149 16.6153L4.80541 17.3279C2.18225 18.1567 0.27832 20.7736 0.27832 23.5502C0.27832 23.7986 0.490822 24 0.752973 24H21.6377C21.8998 24 22.1123 23.7986 22.1123 23.5502C22.1123 20.7736 20.2085 18.1567 17.5852 17.3278ZM17.3658 10.551C17.3658 10.799 17.1529 11.0008 16.8912 11.0008H16.1667C16.2874 10.1151 16.3678 9.17265 16.4001 8.24439C16.4011 8.21822 16.4018 8.19276 16.4027 8.16703H17.3658V10.551ZM5.4995 11.0008C5.23778 11.0008 5.02485 10.799 5.02485 10.551V8.16703H5.9883C5.98986 8.21394 5.99152 8.26108 5.99337 8.30854C5.99342 8.31015 5.99352 8.31173 5.99356 8.31335C5.99356 8.31348 5.99356 8.31362 5.99356 8.31375C6.02679 9.21659 6.10615 10.1346 6.22406 11.0007H5.4995V11.0008ZM6.4488 12.8C6.18708 12.8 5.97415 12.5982 5.97415 12.3502V11.9004H6.36327L6.46428 12.4743C6.48355 12.5834 6.50723 12.692 6.53462 12.8H6.4488ZM5.97496 7.26743H5.04288C5.28329 4.25282 7.93812 1.86982 11.1953 1.86982C14.4381 1.86982 17.1046 4.2525 17.3477 7.26743H16.4157C16.3816 4.78331 14.2469 2.76942 11.6202 2.76942H10.7706C8.14388 2.76942 6.00909 4.78331 5.97496 7.26743ZM10.7705 3.66902H11.6201C13.747 3.66902 15.4684 5.31759 15.4672 7.33085C15.4672 7.4724 15.466 7.59565 15.4635 7.70778C15.4635 7.70922 15.4635 7.71071 15.4635 7.71219L14.8698 7.63181C13.2569 7.41357 11.734 6.692 10.5817 5.59997C10.4926 5.51563 10.3719 5.46822 10.246 5.46822C8.9713 5.46822 7.75106 6.0186 6.94444 6.94843C7.14322 5.11688 8.77712 3.66902 10.7705 3.66902ZM7.51867 12.8C7.28106 12.0509 7.00918 9.8469 6.94909 8.43453L7.58792 7.62731C8.17464 6.88622 9.08745 6.42576 10.0584 6.37291C11.3361 7.52512 12.9889 8.286 14.7355 8.52233L15.4343 8.61696C15.3876 9.55637 15.2922 10.4991 15.1554 11.3661C15.1554 11.3663 15.1553 11.3666 15.1553 11.367C15.1118 11.6457 15.0775 11.8251 14.99 12.3261C14.7386 13.7549 13.6136 15.047 12.1284 15.3988C11.5172 15.5434 10.8733 15.5434 10.2624 15.3988C9.33512 15.1792 8.48483 14.5711 7.93608 13.6996H8.90371C9.09964 14.2231 9.62722 14.5992 10.246 14.5992H11.1953C11.9821 14.5992 12.6193 13.9954 12.6193 13.2498C12.6193 12.5057 11.9805 11.9004 11.1953 11.9004H10.246C9.61345 11.9004 9.09366 12.2876 8.9029 12.8H7.51867ZM10.2061 16.3091C10.5317 16.3741 10.8636 16.4074 11.1953 16.4074C11.455 16.4074 11.7147 16.3868 11.9715 16.3468L11.1328 17.1874L10.2061 16.3091ZM10.4803 17.8413L8.97476 19.35C8.5603 18.5982 8.20416 17.8158 7.91206 17.0148L8.47742 15.9433L10.4803 17.8413ZM13.8328 15.7909L14.4785 17.0147C14.1859 17.8171 13.8297 18.5998 13.4157 19.3507L11.8043 17.8237L13.8328 15.7909ZM9.77137 13.2498C9.77137 13.0014 9.98392 12.8 10.246 12.8H11.1953C11.4571 12.8 11.67 13.0018 11.67 13.2498C11.67 13.4982 11.4574 13.6996 11.1953 13.6996H10.246C9.9843 13.6996 9.77137 13.4978 9.77137 13.2498ZM1.24661 23.1004C1.43472 20.8721 2.9996 18.8468 5.10563 18.1813L7.10363 17.5503C7.46969 18.5095 7.92317 19.4418 8.45464 20.3274C8.45554 20.3289 8.45639 20.3304 8.4573 20.3319C8.4573 20.3319 8.45734 20.3319 8.45734 20.332C8.84566 20.9792 9.28272 21.6117 9.75656 22.2121L10.3405 23.1004H1.24661ZM11.1953 22.6995L10.5516 21.7201C10.5444 21.7091 10.5367 21.6985 10.5285 21.6881C10.1442 21.2023 9.78561 20.6941 9.45905 20.174L11.1518 18.4776L12.9355 20.1679C12.6067 20.6918 12.2469 21.202 11.8622 21.688C11.839 21.7174 11.8719 21.6711 11.1953 22.6995ZM12.0502 23.1004L12.634 22.2122C13.11 21.6094 13.5502 20.9719 13.9424 20.317C13.9448 20.3131 13.947 20.309 13.9494 20.3051C13.9496 20.3046 13.9499 20.3041 13.9502 20.3036C14.4749 19.4265 14.9237 18.5023 15.287 17.5503L17.285 18.1813C19.3911 18.8468 20.9559 20.8721 21.144 23.1004H12.0502Z" fill="#3750B2"/>
</svg>
