<svg width="891" height="684" viewBox="0 0 891 684" fill="none" xmlns="http://www.w3.org/2000/svg">
<path opacity="0.1" d="M58.9012 268.091H136.286V377.746H64.5594C64.3764 378.88 64.1934 380.005 63.9875 381.139H136.286V469.557C136.164 469.557 136.042 469.462 135.927 469.415C133.894 468.574 131.86 467.684 129.827 466.743C129.392 466.537 128.965 466.323 128.523 466.125C126.489 465.126 124.456 464.069 122.422 462.954C121.713 462.566 121.004 462.161 120.31 461.749C109.021 455.201 98.7606 446.898 89.884 437.128C89.6171 436.866 89.3731 436.581 89.1215 436.335C87.8861 434.94 86.6736 433.529 85.4993 432.086C85.057 431.555 84.63 431.016 84.1953 430.501C82.8075 428.741 81.4654 426.918 80.169 425.086C79.9707 424.809 79.7877 424.539 79.5971 424.294C74.2866 416.655 69.8827 408.377 66.481 399.641C66.3743 399.379 66.2751 399.094 66.176 398.848C65.1237 396.073 64.1705 393.259 63.3469 390.39C62.9961 389.193 62.653 388.012 62.3632 386.767C62.2565 386.41 62.1726 386.046 62.0811 385.689C57.7955 368.13 57.2998 349.882 57.2998 331.721C57.2998 329.608 57.2998 327.494 57.2998 325.38C57.3608 317.965 57.4447 310.559 57.5515 303.16C57.5921 301.258 57.6303 299.347 57.6658 297.429C57.7726 292.572 57.9251 287.705 58.1234 282.827C58.1691 281.48 58.2301 280.124 58.2988 278.784C58.3293 278.008 58.3674 277.231 58.4131 276.454C58.5504 273.648 58.7131 270.86 58.9012 268.091Z" fill="#6C63FF"/>
<path opacity="0.1" d="M136.286 145.998H93.8342C100.738 134.777 108.278 123.993 116.414 113.703C122.728 105.649 129.377 97.8016 136.286 90.2391V145.998Z" fill="#6C63FF"/>
<path opacity="0.1" d="M136.286 149.375V264.698H59.1451C59.1451 264.365 59.1909 264.024 59.2214 263.691C59.29 262.78 59.3587 261.876 59.4349 260.964C59.5112 259.902 59.6103 258.84 59.7094 257.793C59.8086 256.747 59.9077 255.479 60.0297 254.329C60.1517 253.18 60.2509 252.015 60.3729 250.865C60.4949 249.716 60.6169 248.566 60.7541 247.425C60.8914 246.283 61.0134 245.126 61.1659 243.985C61.2803 243.041 61.3947 242.09 61.5243 241.139C61.6997 239.799 61.8827 238.459 62.0734 237.128C62.0734 236.922 62.1344 236.723 62.1649 236.525C63.5586 226.777 65.4524 217.113 67.8383 207.576C70.3439 197.572 73.5423 187.769 77.4085 178.245C81.5167 168.266 86.3288 158.617 91.8056 149.375H136.286Z" fill="#6C63FF"/>
<path opacity="0.1" d="M154.771 268.091V377.746H320.063V268.091H154.771ZM154.771 381.139V475.312C155.716 475.511 156.646 475.709 157.584 475.875C158.843 476.129 160.108 476.359 161.397 476.557L162.16 476.668C162.663 476.755 163.174 476.826 163.685 476.89C164.958 477.08 166.232 477.223 167.498 477.35C168.092 477.413 168.71 477.461 169.313 477.516L170.784 477.627C171.585 477.691 172.378 477.738 173.171 477.77C173.659 477.77 174.147 477.809 174.643 477.825C175.139 477.841 175.405 477.825 175.802 477.825H177.243C177.899 477.825 178.555 477.825 179.203 477.825H180.042C180.698 477.825 181.353 477.825 182.002 477.762H182.04C182.497 477.762 182.947 477.762 183.405 477.706C183.534 477.714 183.664 477.714 183.794 477.706C184.175 477.706 184.556 477.706 184.922 477.659C185.008 477.651 185.095 477.651 185.181 477.659C186.028 477.603 186.882 477.532 187.744 477.453C188.605 477.373 189.421 477.278 190.283 477.183L192.014 476.961C199.087 475.932 206.082 474.385 212.946 472.332C228.373 467.861 243.449 461.606 258.868 457.033C278.786 451.127 300.809 448.218 320.056 455.408V381.139H154.771ZM320.063 145.998V0.0133624C301.968 -0.193591 283.922 2.00415 266.364 6.55319C224.507 17.4846 186.92 41.1945 154.771 71.4759V145.99H163.09V149.375H154.771V264.698H320.063V149.375H197.123V145.982L320.063 145.998ZM532.421 96.684C522.066 96.3035 511.771 92.9027 502.452 87.6312C484.654 77.5718 470.425 62.0189 454.533 48.9075C421.514 21.5829 380.565 5.08669 338.555 0.996319V145.998H574.499L575.086 145.356L532.421 96.684ZM553.918 92.7204L576.711 118.729V85.8794C569.039 86.8861 562.359 89.2246 553.918 92.6887V92.7204ZM576.711 498.697V381.139H528.105C527.983 380.639 527.846 380.132 527.693 379.625C527.838 380.132 527.968 380.639 528.097 381.139H338.555V466.149C340.355 467.536 342.132 469.002 343.893 470.477C345.795 472.094 347.683 473.73 349.559 475.384L351.45 477.009C352.358 477.801 353.28 478.594 354.195 479.347C356.031 480.885 357.879 482.407 359.739 483.913C360.67 484.674 361.605 485.422 362.545 486.157C377.44 497.99 393.15 508.67 409.55 518.111C413.225 520.243 416.939 522.296 420.675 524.302C423.161 525.633 425.665 526.939 428.187 528.218C431.969 530.136 435.782 531.986 439.625 533.767C475.058 550.301 512.527 561.644 550.959 567.472C559.49 568.778 568.058 569.808 576.665 570.564V498.681H577.427L576.711 498.697ZM338.555 149.375V264.698H576.711V149.375H338.555ZM338.555 268.075V377.746H576.711V268.091L338.555 268.075ZM595.195 85.7208V122.423L624.279 89.2325C614.64 87.5784 604.946 86.4078 595.195 85.7208ZM595.195 268.091V377.746H826.823V268.091H595.195ZM826.007 507.393L826.823 381.139H595.195V571.84C610.115 572.485 625.057 572.297 639.957 571.277H640.217C647.334 570.802 654.418 570.125 661.469 569.248H661.629C699.258 564.695 736.05 554.478 770.851 538.919L826.007 507.393ZM871.509 286.101C870.63 283.987 869.727 281.873 868.802 279.76C867.079 275.796 865.264 271.943 863.388 268.099H845.315V377.746H891C890.962 346.688 883.397 314.98 871.509 286.101ZM845.315 381.139V489.74C858.18 476.922 869.061 462.249 876.885 445.475C886.303 425.269 890.611 403.406 890.97 381.131L845.315 381.139ZM845.315 236.137V264.674H861.695C856.73 254.864 851.262 245.338 845.315 236.137ZM688.228 107.243C687.023 106.759 685.81 106.276 684.598 105.816C671.814 100.904 658.749 96.8221 645.478 93.5924L600.96 144.373L600.091 145.348L600.663 145.99H759.108C737.039 130.204 713.246 117.198 688.228 107.243ZM763.759 149.375H598.444L595.195 152.459V264.698H623.677H826.823V210.318C808.454 187.226 787.252 166.737 763.759 149.375Z" fill="#6C63FF"/>
<path opacity="0.1" d="M136.286 207.552V264.698H59.1451C59.1451 264.365 59.1909 264.024 59.2214 263.691C59.29 262.78 59.3587 261.876 59.4349 260.964C59.5112 259.902 59.6103 258.84 59.7094 257.793C59.8086 256.747 59.9077 255.479 60.0297 254.329C60.1517 253.18 60.2509 252.015 60.3729 250.865C60.4949 249.716 60.6169 248.566 60.7541 247.425C60.8914 246.283 61.0134 245.126 61.1659 243.985C61.2803 243.041 61.3947 242.09 61.5243 241.139C61.6997 239.799 61.8827 238.459 62.0734 237.128C62.0734 236.922 62.1344 236.723 62.1649 236.525C63.5586 226.777 65.4524 217.113 67.8383 207.576L136.286 207.552Z" fill="#6C63FF"/>
<path opacity="0.1" d="M58.9012 268.091H136.286V377.746H64.5594C64.3764 378.88 64.1934 380.005 63.9875 381.139H136.286V469.557C136.164 469.557 136.042 469.462 135.927 469.415C133.894 468.574 131.86 467.684 129.827 466.743C129.392 466.537 128.965 466.323 128.523 466.125C126.489 465.126 124.456 464.069 122.422 462.954C121.713 462.566 121.004 462.161 120.31 461.749C109.021 455.201 98.7606 446.898 89.884 437.128C89.6171 436.866 89.3731 436.581 89.1215 436.335C87.8861 434.94 86.6736 433.529 85.4993 432.086C85.057 431.555 84.63 431.016 84.1953 430.501C82.8075 428.741 81.4654 426.918 80.169 425.086C79.9707 424.809 79.7877 424.539 79.5971 424.294C74.2866 416.655 69.8827 408.377 66.481 399.641C66.3743 399.379 66.2751 399.094 66.176 398.848C65.1237 396.073 64.1705 393.259 63.3469 390.39C62.9961 389.193 62.653 388.012 62.3632 386.767C62.2565 386.41 62.1726 386.046 62.0811 385.689C57.7955 368.13 57.2998 349.882 57.2998 331.721C57.2998 329.608 57.2998 327.494 57.2998 325.38C57.3608 317.965 57.4447 310.559 57.5515 303.16C57.5921 301.258 57.6303 299.347 57.6658 297.429C57.7726 292.572 57.9251 287.705 58.1234 282.827C58.1691 281.48 58.2301 280.124 58.2988 278.784C58.3293 278.008 58.3674 277.231 58.4131 276.454C58.5504 273.648 58.7131 270.86 58.9012 268.091Z" fill="#6C63FF"/>
<path opacity="0.1" d="M212.954 165.895V264.698H154.763V165.895H163.059V132.443H197.115V165.895H212.954Z" fill="#6C63FF"/>
<path opacity="0.1" d="M212.946 268.083H154.763V377.738H212.946V268.083Z" fill="#6C63FF"/>
<path opacity="0.1" d="M154.771 381.139H212.954V472.3C206.091 474.354 199.096 475.898 192.022 476.921C191.442 477.009 190.87 477.08 190.291 477.143C189.437 477.246 188.59 477.342 187.744 477.421L185.189 477.635H184.93L183.801 477.698H183.412C182.955 477.698 182.505 477.754 182.047 477.762H182.009C181.353 477.762 180.705 477.809 180.049 477.825H179.211C178.562 477.825 177.914 477.825 177.251 477.825H175.817H174.65C174.155 477.825 173.667 477.825 173.171 477.762C172.388 477.73 171.595 477.682 170.792 477.619L169.32 477.508C168.71 477.46 168.1 477.397 167.498 477.334C166.217 477.217 164.946 477.067 163.685 476.882L162.16 476.66L161.397 476.549C160.124 476.351 158.858 476.129 157.584 475.875C156.639 475.701 155.708 475.502 154.771 475.296V381.139Z" fill="#6C63FF"/>
<path opacity="0.1" d="M576.703 154.226H528.723V264.69H576.703V154.226Z" fill="#6C63FF"/>
<path opacity="0.1" d="M576.71 268.083V377.746H338.555V330.445H465.407V358.348H528.722V268.083H576.71Z" fill="#6C63FF"/>
<path opacity="0.1" d="M577.465 498.721C577.214 498.721 576.962 498.721 576.703 498.673V570.611C568.106 569.877 559.54 568.849 551.004 567.528C512.559 561.702 475.075 550.364 439.625 533.838C429.391 529.039 419.366 523.81 409.549 518.15C393.155 508.705 377.448 498.025 362.553 486.196C358.801 483.215 355.105 480.169 351.465 477.056C348.941 474.884 346.44 472.665 343.893 470.516C342.139 469.034 340.362 467.567 338.555 466.172V381.139H528.097C527.96 380.631 527.838 380.132 527.701 379.625C527.845 380.132 527.983 380.631 528.105 381.139H576.71V498.665C576.962 498.673 577.214 498.697 577.465 498.721Z" fill="#6C63FF"/>
<path opacity="0.1" d="M701.847 145.998H670.582V135.899H684.59V105.816C685.805 106.281 687.015 106.756 688.22 107.243V135.899H701.839L701.847 145.998Z" fill="#6C63FF"/>
<path opacity="0.1" d="M777.18 264.698H623.676C623.691 264.702 623.707 264.702 623.722 264.698H623.654H595.195V154.234H603.263V235.883H640.125V187.528H670.589V149.375H701.854V187.552H732.303V235.907H777.188L777.18 264.698Z" fill="#6C63FF"/>
<path opacity="0.1" d="M595.195 268.091V377.746H777.187V268.091H595.195ZM826.563 506.814L826.822 420.013H777.187V381.17H595.195V571.84C610.115 572.485 625.057 572.297 639.957 571.277H640.216C647.334 570.802 654.418 570.125 661.469 569.248H661.629C699.258 564.695 736.05 554.478 770.851 538.919" fill="#6C63FF"/>
<path opacity="0.1" d="M848.518 381.139H890.969C890.603 403.406 886.303 425.277 876.885 445.475C869.061 462.256 858.179 476.929 845.315 489.747V419.989H848.518V381.139Z" fill="#6C63FF"/>
<path opacity="0.1" d="M891 377.746H848.518V286.101H871.509C883.397 314.979 890.962 346.688 891 377.746Z" fill="#6C63FF"/>
<path opacity="0.1" d="M576.711 184.936H551.005V219.569H576.711V184.936Z" fill="#6C63FF"/>
<path opacity="0.1" d="M576.711 256.723H551.005V264.698H576.711V256.723Z" fill="#6C63FF"/>
<path opacity="0.1" d="M576.711 268.083H551.005V291.349H576.711V268.083Z" fill="#6C63FF"/>
<path opacity="0.1" d="M576.711 328.511H551.005V363.144H576.711V328.511Z" fill="#6C63FF"/>
<path opacity="0.1" d="M576.711 400.298H551.005V434.932H576.711V400.298Z" fill="#6C63FF"/>
<path opacity="0.1" d="M576.711 498.665C576.962 498.665 577.214 498.665 577.473 498.721C577.222 498.721 576.97 498.721 576.711 498.673V506.719H551.005V472.086H576.711V498.665Z" fill="#6C63FF"/>
<path opacity="0.1" d="M576.711 543.865V570.611C568.109 569.877 559.54 568.849 551.005 567.528V543.865H576.711Z" fill="#6C63FF"/>
<path opacity="0.1" d="M448.722 375.201H338.555V377.746H448.722V375.201Z" fill="#6C63FF"/>
<path opacity="0.1" d="M448.722 381.131H338.555V390.881H448.722V381.131Z" fill="#6C63FF"/>
<path opacity="0.1" d="M448.722 422.843H338.555V438.523H448.722V422.843Z" fill="#6C63FF"/>
<path opacity="0.1" d="M448.722 470.485V486.164H362.553C358.801 483.194 355.105 480.145 351.465 477.016C348.934 474.852 346.432 472.633 343.893 470.485H448.722Z" fill="#6C63FF"/>
<path opacity="0.1" d="M448.722 518.118V533.838H439.625C429.391 529.039 419.366 523.81 409.55 518.15L448.722 518.118Z" fill="#6C63FF"/>
<path opacity="0.1" d="M661.645 278.713H639.957V301.258H661.645V278.713Z" fill="#6C63FF"/>
<path opacity="0.1" d="M192.075 173.672H170.388V196.216H192.075V173.672Z" fill="#6C63FF"/>
<path opacity="0.1" d="M192.075 226.038H170.388V248.582H192.075V226.038Z" fill="#6C63FF"/>
<path opacity="0.1" d="M192.075 278.404H170.388V300.948H192.075V278.404Z" fill="#6C63FF"/>
<path opacity="0.1" d="M192.075 330.762H170.388V353.307H192.075V330.762Z" fill="#6C63FF"/>
<path opacity="0.1" d="M192.075 383.128H170.388V405.673H192.075V383.128Z" fill="#6C63FF"/>
<path opacity="0.1" d="M192.075 435.494H170.388V458.039H192.075V435.494Z" fill="#6C63FF"/>
<path opacity="0.1" d="M744.436 278.713H722.748V301.258H744.436V278.713Z" fill="#6C63FF"/>
<path opacity="0.1" d="M661.645 334.321H639.957V356.866H661.645V334.321Z" fill="#6C63FF"/>
<path opacity="0.1" d="M744.436 334.321H722.748V356.866H744.436V334.321Z" fill="#6C63FF"/>
<path opacity="0.1" d="M661.645 389.922H639.957V412.466H661.645V389.922Z" fill="#6C63FF"/>
<path opacity="0.1" d="M744.436 389.922H722.748V412.466H744.436V389.922Z" fill="#6C63FF"/>
<path opacity="0.1" d="M661.645 445.53H639.957V468.075H661.645V445.53Z" fill="#6C63FF"/>
<path opacity="0.1" d="M744.436 445.53H722.748V468.075H744.436V445.53Z" fill="#6C63FF"/>
<path opacity="0.1" d="M661.645 501.138H639.957V523.683H661.645V501.138Z" fill="#6C63FF"/>
<path opacity="0.1" d="M744.436 501.138H722.748V523.683H744.436V501.138Z" fill="#6C63FF"/>
<path opacity="0.1" d="M639.957 571.277V556.739H661.637V569.208L639.957 571.277Z" fill="#6C63FF"/>
<path opacity="0.1" d="M62.0734 236.501V249.399H136.286V236.501H62.0734ZM69.4626 248.59H63.3621V237.318H69.4626V248.59ZM76.8518 248.59H70.7513V237.318H76.8518V248.59ZM84.2258 248.59H78.1253V237.318H84.2258V248.59ZM91.615 248.59H85.5145V237.318H91.615V248.59ZM98.9966 248.59H92.8961V237.318H98.9966V248.59ZM106.386 248.59H100.285V237.318H106.386V248.59ZM113.775 248.59H107.674V237.318H113.775V248.59ZM121.157 248.59H115.056V237.318H121.157V248.59ZM128.538 248.59H122.438V237.318H128.538V248.59ZM135.927 248.59H129.827V237.318H135.927V248.59Z" fill="#6C63FF"/>
<path opacity="0.1" d="M62.0734 274.044V286.941H136.286V274.044H62.0734ZM69.4626 286.133H63.3621V274.86H69.4626V286.133ZM76.8518 286.133H70.7513V274.86H76.8518V286.133ZM84.2258 286.133H78.1253V274.86H84.2258V286.133ZM91.615 286.133H85.5145V274.86H91.615V286.133ZM98.9966 286.133H92.8961V274.86H98.9966V286.133ZM106.386 286.133H100.285V274.86H106.386V286.133ZM113.775 286.133H107.674V274.86H113.775V286.133ZM121.157 286.133H115.056V274.86H121.157V286.133ZM128.538 286.133H122.438V274.86H128.538V286.133ZM135.927 286.133H129.827V274.86H135.927V286.133Z" fill="#6C63FF"/>
<path opacity="0.1" d="M62.0734 311.594V324.484H136.286V311.594H62.0734ZM69.4626 323.667H63.3621V312.395H69.4626V323.667ZM76.8518 323.667H70.7513V312.395H76.8518V323.667ZM84.2258 323.667H78.1253V312.395H84.2258V323.667ZM91.615 323.667H85.5145V312.395H91.615V323.667ZM98.9966 323.667H92.8961V312.395H98.9966V323.667ZM106.386 323.667H100.285V312.395H106.386V323.667ZM113.775 323.667H107.674V312.395H113.775V323.667ZM121.157 323.667H115.056V312.395H121.157V323.667ZM128.538 323.667H122.438V312.395H128.538V323.667ZM135.927 323.667H129.827V312.395H135.927V323.667Z" fill="#6C63FF"/>
<path opacity="0.1" d="M62.0734 349.137V362.026H136.286V349.137H62.0734ZM69.4626 361.218H63.3621V349.93H69.4626V361.218ZM76.8518 361.218H70.7513V349.93H76.8518V361.218ZM84.2258 361.218H78.1253V349.93H84.2258V361.218ZM91.615 361.218H85.5145V349.93H91.615V361.218ZM98.9966 361.218H92.8961V349.93H98.9966V361.218ZM106.386 361.218H100.285V349.93H106.386V361.218ZM113.775 361.218H107.674V349.93H113.775V361.218ZM121.157 361.218H115.056V349.93H121.157V361.218ZM128.538 361.218H122.438V349.93H128.538V361.218ZM135.927 361.218H129.827V349.93H135.927V361.218Z" fill="#6C63FF"/>
<path opacity="0.1" d="M62.4319 386.664C62.7217 387.884 63.0648 389.089 63.4156 390.286V387.48H69.5161V398.744H66.2447C66.3362 399.014 66.4353 399.291 66.5421 399.537H136.316V386.664H62.4319ZM76.9205 398.744H70.8201V387.48H76.9205V398.744ZM84.2945 398.744H78.194V387.48H84.2945V398.744ZM91.6837 398.744H85.5832V387.48H91.6837V398.744ZM99.0653 398.744H92.9648V387.48H99.0653V398.744ZM106.455 398.744H100.354V387.48H106.455V398.744ZM113.844 398.744H107.743V387.48H113.844V398.744ZM121.225 398.744H115.125V387.48H121.225V398.744ZM128.607 398.744H122.506V387.48H128.607V398.744ZM135.996 398.744H129.896V387.48H135.996V398.744Z" fill="#6C63FF"/>
<path opacity="0.1" d="M79.62 424.206C79.8183 424.46 80.0013 424.745 80.1919 424.999H84.2259V430.413L85.5298 431.999V424.967H91.6303V436.335H89.1215C89.3655 436.596 89.6019 436.874 89.8841 437.127H136.271V424.206H79.62ZM99.0348 436.335H92.9343V425.015H99.0348V436.335ZM106.424 436.335H100.324V425.015H106.424V436.335ZM113.813 436.335H107.713V425.015H113.813V436.335ZM121.195 436.335H115.094V425.015H121.195V436.335ZM128.576 436.335H122.476V425.015H128.576V436.335ZM135.966 436.335H129.865V425.015H135.966V436.335Z" fill="#6C63FF"/>
<path opacity="0.1" d="M120.333 461.749C121.035 462.161 121.744 462.542 122.453 462.946V462.549H128.554V466.125C128.996 466.323 129.415 466.537 129.85 466.743V462.549H135.95V469.414C136.066 469.469 136.186 469.514 136.309 469.549V461.749H120.333Z" fill="#6C63FF"/>
<path opacity="0.1" d="M576.703 498.665H577.466H576.703ZM527.693 379.624C527.838 380.132 527.968 380.639 528.097 381.139C527.983 380.639 527.846 380.132 527.693 379.624ZM163.09 145.998V149.375H197.154V145.982L163.09 145.998ZM576.711 498.665H577.473H576.711ZM527.693 379.624C527.838 380.132 527.968 380.639 528.097 381.139C527.983 380.639 527.846 380.132 527.693 379.624ZM576.703 498.665H577.466H576.703ZM527.693 379.624C527.838 380.132 527.968 380.639 528.097 381.139C527.983 380.639 527.846 380.132 527.693 379.624Z" fill="#6C63FF"/>
<path opacity="0.1" d="M671.245 684C712.282 684 745.549 678.446 745.549 671.594C745.549 664.742 712.282 659.188 671.245 659.188C630.208 659.188 596.941 664.742 596.941 671.594C596.941 678.446 630.208 684 671.245 684Z" fill="#6C63FF"/>
<path opacity="0.1" d="M336.13 671.594C377.167 671.594 410.434 666.04 410.434 659.188C410.434 652.337 377.167 646.782 336.13 646.782C295.093 646.782 261.826 652.337 261.826 659.188C261.826 666.04 295.093 671.594 336.13 671.594Z" fill="#6C63FF"/>
<path d="M421.674 331.151C421.656 331.072 421.616 331 421.56 330.945C420.423 329.779 405.935 308.479 405.935 308.479C405.935 308.479 405.172 306.101 403.937 303.01C404.333 302.477 404.63 301.872 404.814 301.226C404.881 300.952 404.929 300.674 404.959 300.394C404.959 300.306 405.02 300.235 405.043 300.148C405.307 299.073 405.281 297.942 404.966 296.882C404.882 297.154 404.777 297.419 404.654 297.675C404.367 296.751 403.983 295.863 403.51 295.027C401.588 291.587 398.843 288.685 396.822 285.332C393.762 280.122 392.546 273.966 393.383 267.924C393.383 268.233 393.383 268.551 393.383 268.86C393.46 267.661 393.612 266.47 393.841 265.293C394.159 263.953 394.585 262.643 395.114 261.377C396.929 257.056 399.865 253.291 401.649 248.955C402.248 247.492 402.703 245.97 403.007 244.413C403.635 241.811 403.864 239.122 403.685 236.446C403.685 237.08 403.586 237.714 403.495 238.341C403.302 231.906 400.802 225.779 396.487 221.163C390.257 214.654 381.312 212.126 372.756 210.794C369.16 210.358 365.727 208.996 362.766 206.83C359.48 204.619 355.232 204.088 351.389 204.571C346.972 205.068 342.867 207.177 339.806 210.524C335.741 215.17 333.98 221.749 329.236 225.665C326.362 228.043 322.717 229.153 319.369 230.77C316.021 232.387 312.857 234.734 311.781 238.206C311.781 238.206 311.781 238.158 311.781 238.134V238.333L311.736 238.459C310.622 242.566 312.773 246.743 313.894 250.842C315.061 255.082 315.137 259.561 315.198 263.945C315.282 269.304 315.358 274.67 315.274 280.037C315.236 282.145 315.167 284.278 315.015 286.379C313.21 286.946 311.457 287.678 309.776 288.566C308.068 289.724 301.678 296.898 301.678 296.898L289.179 346.537L289.347 346.735L289.179 347.409L289.812 347.258C291.581 349.24 296.866 354.884 302.57 358.404L303.104 368.138C303.104 368.138 303.744 377.904 312.384 381.939C312.582 385.324 313.2 399.07 310.34 404.516C308.36 408.494 307.429 412.947 307.641 417.421C307.641 417.421 308.64 425.681 307.504 430.025C306.84 432.928 306.79 435.947 307.359 438.872C307.359 438.872 307.359 439.831 307.359 441.48C307.359 450.271 307.458 478.443 307.359 481.63C307.214 485.395 307.359 541.083 307.359 541.083C307.359 541.083 306.649 568.915 304.377 576.454C302.105 583.992 302.677 608.955 302.677 608.955C302.677 608.955 301.251 638.689 306.291 644.555C306.291 644.817 306.245 645.086 306.238 645.348C306.238 645.467 306.238 645.601 306.238 645.72C306.177 647.98 306.596 650.381 308.464 651.119C312.277 652.641 317.318 657.207 318.271 658.515C319.224 659.823 324.768 663.081 331.997 662.209C336.526 661.679 341.083 661.462 345.639 661.559C345.639 661.559 348.491 661.02 347.568 657.333C346.974 655.035 344.747 651.499 343.161 649.177C343.451 649.256 343.733 649.319 344 649.375L344.274 649.43H344.488C344.605 649.438 344.722 649.438 344.838 649.43H344.991C345.133 649.442 345.276 649.442 345.418 649.43C347.332 649.24 354.47 652.696 355.743 654.979C357.017 657.262 361.508 658.998 364.894 659.434C366.907 659.688 371.986 659.26 376.248 658.689C378.395 658.459 380.521 658.056 382.608 657.484C383.615 657.088 383.828 655.819 383.538 654.393C383.196 652.58 382.264 650.946 380.9 649.763C379.665 648.852 378.033 646.45 376.828 644.484L376.508 643.953C378.635 641.844 382.478 634.947 383.645 633.521C385.064 631.785 381.357 568.297 381.357 568.297V536.47L387.039 506.347L391.012 490.405L394.42 466.339C394.42 466.339 400.383 438.229 398.546 435.471C398.546 435.415 397.02 406.474 395.419 399.522C394.725 396.422 394.901 389.446 395.312 382.661C395.743 382.216 396.043 381.654 396.178 381.04C396.313 380.425 396.277 379.783 396.075 379.189C395.961 378.782 395.813 378.387 395.633 378.008C395.633 377.889 395.633 377.762 395.633 377.643C398.927 376.067 402.369 374.851 405.904 374.012C411.585 372.855 410.167 369.811 410.167 369.811C410.167 369.811 411.448 367.203 412.295 365.61C413.141 364.016 412.439 349.954 412.295 348.796C412.241 348.329 411.89 345.744 411.486 342.811C413.309 341.464 415.68 339.791 418.265 338.206C423.184 335.178 422.078 331.983 421.674 331.151ZM347.553 532.126C347.553 532.126 343.29 543.43 344.999 546.323C346.707 549.216 344.716 559.957 344.716 559.957L343.29 575.899C343.29 575.899 339.318 605.467 340.736 612.419C341.849 617.873 342.261 634.163 342.391 640.956C342.293 640.996 342.199 641.043 342.109 641.099L341.918 641.202C342.574 638.531 342.299 633.124 339.043 622.248L338.768 577.326C338.768 577.326 338.265 525.435 342.208 519.632C346.15 513.83 347.546 503.977 347.546 503.977C347.546 503.977 346.692 518.19 346.135 521.955C345.578 525.72 347.553 532.126 347.553 532.126ZM339.615 643.786C339.577 643.881 339.531 643.976 339.501 644.064L339.287 643.778C339.396 643.789 339.506 643.792 339.615 643.786Z" fill="url(#paint0_linear)"/>
<path d="M383.089 661.59C380.885 662.47 368.936 663.969 365.596 663.548C362.256 663.128 357.833 661.368 356.574 659.07C355.316 656.771 348.263 653.299 346.371 653.521C345.596 653.545 344.823 653.432 344.084 653.188C342.779 652.777 341.505 652.268 340.271 651.666C340.099 650.666 340.127 649.641 340.355 648.653C340.399 648.454 340.455 648.258 340.523 648.067C340.968 646.766 341.888 645.701 343.085 645.102L343.359 644.967C343.888 644.73 344.44 644.554 345.006 644.444C351 643.247 375.73 645.649 375.73 645.649C375.73 645.649 376.424 646.941 377.377 648.542C378.567 650.524 380.183 652.942 381.403 653.854C382.755 655.055 383.672 656.699 384.004 658.515C384.294 659.918 384.08 661.202 383.089 661.59Z" fill="white"/>
<path opacity="0.1" d="M383.089 661.59C380.885 662.47 368.943 663.968 365.603 663.548C362.263 663.128 357.84 661.36 356.574 659.069C355.308 656.778 348.27 653.298 346.379 653.52C344.488 653.742 340.278 651.666 340.278 651.666C340.278 651.666 339.623 648.495 341.529 646.331L345.342 649.145C345.342 649.145 355.545 652.434 357.436 655.486C359.327 658.538 362.774 660.243 367.753 660.552C371.475 660.805 380.023 659.299 384.026 658.546C384.293 659.918 384.087 661.202 383.089 661.59Z" fill="black"/>
<path d="M346.585 665.633C342.087 665.542 337.588 665.762 333.118 666.291C325.958 667.163 320.49 663.913 319.537 662.573C318.584 661.234 313.65 656.707 309.86 655.122C308.007 654.377 307.572 651.951 307.656 649.684C307.656 649.565 307.656 649.43 307.656 649.311C307.726 647.875 307.931 646.449 308.266 645.054L337.938 644.396L340.507 648.019L340.904 648.574L342.467 650.786C342.467 650.786 343.176 651.753 344.107 653.164C345.678 655.542 347.874 659.054 348.461 661.376C349.399 665.094 346.585 665.633 346.585 665.633Z" fill="white"/>
<path opacity="0.1" d="M346.585 665.633C342.087 665.542 337.588 665.762 333.118 666.291C325.965 667.163 320.49 663.913 319.545 662.573C318.599 661.234 313.65 656.668 309.86 655.138C308.007 654.393 307.572 651.967 307.656 649.7C309.776 650.215 314.23 651.531 315.976 653.822C318.263 656.882 322.358 662.026 328.177 662.351C332.874 662.613 344.313 661.741 348.507 661.392C349.406 665.094 346.585 665.633 346.585 665.633Z" fill="black"/>
<path opacity="0.1" d="M343.054 645.07C342.711 647.718 341.651 648.431 340.888 648.59C340.702 648.628 340.51 648.628 340.324 648.59C340.224 648.582 340.124 648.566 340.027 648.542C340.027 648.542 313.383 654.662 307.999 649.708C307.863 649.58 307.735 649.442 307.618 649.295C307.688 647.859 307.892 646.434 308.228 645.039L337.899 644.381L340.469 648.003C340.914 646.703 341.835 645.637 343.031 645.039L343.054 645.07Z" fill="black"/>
<path opacity="0.1" d="M377.369 648.511C376.775 649.192 376.279 649.581 375.966 649.446C374.563 648.859 363.064 646.822 359.411 648.574C355.759 650.326 343.398 648.859 343.398 648.859C343.398 648.859 343.397 647.337 343.329 644.896C343.858 644.658 344.41 644.483 344.976 644.373C350.97 643.176 375.699 645.578 375.699 645.578C375.699 645.578 376.424 646.909 377.369 648.511Z" fill="black"/>
<path d="M394.771 469.2L391.401 493.41L387.481 509.454L381.869 539.783V571.887C381.869 571.887 385.514 635.764 384.111 637.508C382.708 639.252 377.377 649.184 375.974 648.606C374.571 648.027 363.072 645.982 359.419 647.726C355.766 649.47 343.405 648.019 343.405 648.019C343.405 648.019 343.123 623.231 341.72 616.231C340.317 609.232 344.244 579.482 344.244 579.482L345.647 563.445C345.647 563.445 347.615 552.649 345.929 549.731C344.244 546.814 348.453 535.463 348.453 535.463C348.453 535.463 346.494 529.034 347.058 525.245C347.622 521.456 348.453 507.163 348.453 507.163C348.453 507.163 347.058 517.088 343.161 522.914C339.265 528.74 339.76 580.956 339.76 580.956L340.035 626.14C347.058 650.064 340.035 647.726 340.035 647.726C340.035 647.726 313.391 653.853 308.007 648.891C302.623 643.929 304.164 612.696 304.164 612.696C304.164 612.696 303.607 587.615 305.849 580.037C308.091 572.458 308.8 544.452 308.8 544.452C308.8 544.452 308.655 488.447 308.8 484.666C308.907 481.495 308.8 453.108 308.8 444.238C308.8 442.589 308.8 441.614 308.8 441.614L312.018 433.307L350.146 428.344H368.387C368.387 428.344 395.839 435.051 398.676 437.944C398.736 437.992 398.788 438.051 398.828 438.118C400.666 440.917 394.771 469.2 394.771 469.2Z" fill="#6C63FF"/>
<path opacity="0.1" d="M348.476 596.366C348.476 596.366 356.864 617.365 360.822 618.824C364.779 620.282 348.476 596.366 348.476 596.366Z" fill="black"/>
<path opacity="0.1" d="M351.58 627.282C351.58 627.282 379.901 628.741 379.619 631.951C379.337 635.161 351.58 627.282 351.58 627.282Z" fill="black"/>
<path opacity="0.1" d="M313.688 618.887C314.809 619.989 335.291 622.058 333.606 624.072C331.921 626.085 315.373 630.001 315.373 630.001L313.688 618.887Z" fill="black"/>
<path opacity="0.1" d="M310.325 582.66C310.325 583.532 314.535 610.659 315.663 611.824C316.792 612.989 326.042 614.155 326.042 614.155L310.325 582.66Z" fill="black"/>
<path d="M340.866 211.88C336.847 216.549 335.108 223.168 330.426 227.116C327.582 229.494 323.982 230.627 320.673 232.245C317.363 233.862 314.084 236.327 313.101 239.989C312.003 244.111 314.123 248.321 315.236 252.443C316.387 256.707 316.456 261.163 316.525 265.625C316.601 271.024 316.685 276.422 316.593 281.82C316.456 290.231 315.785 299.03 311.492 306.157C326.995 311.285 343.481 311.983 359.739 312.641C362.863 312.873 366.002 312.79 369.111 312.395C371.805 311.837 374.47 311.136 377.095 310.294C382.285 308.867 387.633 308.155 393.002 308.178C395.343 308.178 397.73 308.329 399.987 307.694C402.244 307.06 404.417 305.435 405.028 303.089C405.569 300.98 404.776 298.737 403.739 296.842C401.848 293.386 399.163 290.501 397.135 287.092C395.064 283.491 393.836 279.436 393.548 275.252C393.261 271.067 393.923 266.871 395.48 263.002C397.28 258.65 400.178 254.86 401.947 250.501C403.759 245.82 404.241 240.696 403.335 235.739C402.429 230.782 400.174 226.199 396.838 222.534C390.684 215.986 381.853 213.45 373.404 212.102C369.846 211.665 366.452 210.302 363.537 208.138C360.296 205.919 356.094 205.38 352.296 205.871C347.915 206.382 343.858 208.515 340.866 211.88Z" fill="#3F3D56"/>
<g opacity="0.1">
<path opacity="0.1" d="M395.716 258.428C394.161 262.247 393.495 266.395 393.772 270.532C393.942 267.573 394.6 264.667 395.716 261.939C397.508 257.587 400.406 253.798 402.175 249.438C403.621 245.798 404.23 241.856 403.952 237.928C403.795 240.682 403.194 243.388 402.175 245.935C400.406 250.294 397.508 254.076 395.716 258.428Z" fill="black"/>
<path opacity="0.1" d="M316.753 264.547C316.799 267.655 316.845 270.77 316.852 273.877C316.852 269.597 316.814 265.324 316.753 261.051C316.692 256.62 316.616 252.133 315.464 247.861C314.702 245.15 313.573 242.399 313.177 239.664C312.498 243.548 314.427 247.488 315.464 251.364C316.616 255.597 316.692 260.116 316.753 264.547Z" fill="black"/>
<path opacity="0.1" d="M400.246 303.16C397.958 303.802 395.61 303.66 393.269 303.644C387.904 303.608 382.558 304.307 377.369 305.721C374.744 306.558 372.079 307.257 369.385 307.813C366.274 308.215 363.133 308.3 360.006 308.067C344.297 307.425 328.367 306.735 313.322 302.066C312.875 303.103 312.366 304.109 311.797 305.078C327.299 310.199 343.786 310.905 360.036 311.563C363.163 311.796 366.305 311.711 369.416 311.309C372.1 310.758 374.755 310.062 377.369 309.224C382.548 307.805 387.883 307.099 393.238 307.124C395.579 307.124 397.958 307.274 400.215 306.632C402.473 305.99 404.646 304.381 405.256 302.034C405.513 300.948 405.487 299.809 405.18 298.737C404.501 300.956 402.404 302.502 400.246 303.16Z" fill="black"/>
</g>
<path d="M377.659 293.766C377.095 295.082 374.716 306.45 374.152 307.615C373.587 308.78 370.507 327.433 370.224 328.479C369.942 329.525 349.917 324.103 349.917 324.103L337.861 313.6L325.47 300.782C325.47 300.782 325.104 289.216 334.232 285.506C334.852 285.253 335.489 285.047 336.138 284.888C347.21 282.122 346.097 247.124 346.097 247.124L368.821 257.326C368.821 257.326 364.612 277.746 364.757 281.686C364.795 283.009 365.794 283.834 367.098 284.333C369.114 284.929 371.213 285.165 373.305 285.031C373.305 285.031 378.224 292.458 377.659 293.766Z" fill="#FBBEBE"/>
<path d="M418.342 332.118L421.568 332.998C421.568 332.998 423.954 336.771 418.342 340.283C414.778 342.533 411.357 345.019 408.101 347.726L391.515 352.974L388.32 342.55L403.754 330.374L418.342 332.118Z" fill="#6C63FF"/>
<path opacity="0.1" d="M418.342 332.118L421.568 332.998C421.568 332.998 423.954 336.771 418.342 340.283C414.778 342.533 411.357 345.019 408.101 347.726L391.515 352.974L388.32 342.55L403.754 330.374L418.342 332.118Z" fill="black"/>
<path d="M297.3 342.185L290.849 348.749C290.849 348.749 302.486 362.748 311.438 363.62C320.391 364.492 326.163 352.974 326.163 352.974L318.416 340.29L297.3 342.185Z" fill="#6C63FF"/>
<path opacity="0.1" d="M297.3 342.185L290.849 348.749C290.849 348.749 302.486 362.748 311.438 363.62C320.391 364.492 326.163 352.974 326.163 352.974L318.416 340.29L297.3 342.185Z" fill="black"/>
<path opacity="0.1" d="M358.58 269.993C370.974 269.993 381.022 259.548 381.022 246.664C381.022 233.779 370.974 223.334 358.58 223.334C346.185 223.334 336.138 233.779 336.138 246.664C336.138 259.548 346.185 269.993 358.58 269.993Z" fill="black"/>
<path d="M358.58 268.241C370.974 268.241 381.022 257.797 381.022 244.912C381.022 232.028 370.974 221.583 358.58 221.583C346.185 221.583 336.138 232.028 336.138 244.912C336.138 257.797 346.185 268.241 358.58 268.241Z" fill="#FBBEBE"/>
<path opacity="0.1" d="M398.843 440.766C393.733 441.374 388.7 442.546 383.829 444.262C375.44 447.163 309.708 444.31 308.793 444.262C308.793 442.613 308.793 441.638 308.793 441.638L312.011 433.331L350.139 428.368H368.379C368.379 428.368 395.831 435.074 398.668 437.968C398.782 439.712 398.843 440.766 398.843 440.766Z" fill="black"/>
<path opacity="0.1" d="M377.659 293.766C377.095 295.082 374.716 306.45 374.152 307.615C373.587 308.78 370.507 327.433 370.224 328.479C369.942 329.525 349.917 324.103 349.917 324.103L337.861 313.6L325.47 300.782C325.47 300.782 325.104 289.216 334.232 285.506L356.895 312.593L367.098 284.333C369.114 284.93 371.213 285.165 373.305 285.031C373.305 285.031 378.224 292.458 377.659 293.766Z" fill="black"/>
<path d="M356.895 313.465L333.698 285.721C332.34 284.82 330.788 284.283 329.181 284.16C327.575 284.037 325.964 284.331 324.494 285.015C319.301 287.354 312.849 289.248 311.164 290.414C309.479 291.579 303.165 298.792 303.165 298.792L321.97 349.93L313.688 383.612C313.688 383.612 314.954 400.822 311.728 407.092C309.764 411.101 308.844 415.575 309.059 420.069C309.059 420.069 310.043 428.384 308.922 432.752C308.267 435.672 308.218 438.704 308.777 441.646C308.777 441.646 375.417 444.563 383.828 441.646C388.699 439.925 393.732 438.753 398.843 438.15C398.843 438.15 397.318 408.979 395.793 401.979C394.268 394.979 397.059 368.297 397.059 368.297L395.236 339.712L406.172 310.382C406.172 310.382 400.246 291.579 394.07 289.684C394.07 289.684 382.852 286.91 380.466 285.602C378.079 284.294 371.063 283.121 371.063 283.121L367.38 284.405L356.895 313.465Z" fill="#6C63FF"/>
<path opacity="0.1" d="M389.259 338.747L340.446 335.296C339.211 335.209 338.141 336.179 338.057 337.463L332.817 417.579C332.733 418.864 333.666 419.975 334.901 420.063L383.715 423.513C384.95 423.6 386.02 422.63 386.104 421.346L391.344 341.23C391.428 339.946 390.495 338.834 389.259 338.747Z" fill="black"/>
<path d="M390.941 337.006L342.127 333.556C340.892 333.469 339.823 334.439 339.739 335.723L334.498 415.839C334.414 417.123 335.347 418.235 336.583 418.323L385.396 421.773C386.631 421.86 387.701 420.89 387.785 419.606L393.025 339.49C393.109 338.206 392.176 337.094 390.941 337.006Z" fill="#3F3D56"/>
<path d="M389.33 343.286L342.905 340.005L338.134 412.94L384.559 416.221L389.33 343.286Z" fill="white"/>
<path opacity="0.1" d="M385.167 361.903L347.245 359.143L346.505 370.13L384.427 372.89L385.167 361.903Z" fill="black"/>
<path opacity="0.1" d="M383.795 405.564L377.777 405.139L377.402 410.865L383.42 411.29L383.795 405.564Z" fill="black"/>
<path opacity="0.1" d="M377.859 391.745L347.054 389.567L346.679 395.293L377.484 397.471L377.859 391.745Z" fill="black"/>
<path d="M383.583 340.56L351.508 338.292L350.932 347.095L383.008 349.362L383.583 340.56Z" fill="#3F3D56"/>
<path opacity="0.1" d="M383.583 340.56L351.508 338.292L350.932 347.095L383.008 349.362L383.583 340.56Z" fill="black"/>
<path opacity="0.1" d="M359.701 439.157C359.701 439.157 359.419 482.328 348.476 507.116C348.476 507.116 361.668 474.448 361.668 473.14C361.668 471.832 368.958 458.118 367.006 454.036C365.054 449.953 359.701 439.157 359.701 439.157Z" fill="black"/>
<path opacity="0.1" d="M360.296 239.078C359.876 235.257 360.776 231.405 362.835 228.21C362.59 231.412 363.461 234.6 365.29 237.19C367.118 239.781 369.781 241.601 372.794 242.32C372.537 242.088 372.353 241.78 372.268 241.438C372.182 241.096 372.198 240.734 372.313 240.401C373.877 242.241 375.074 244.42 376.843 246.038C378.612 247.655 381.266 248.622 383.348 247.472C386.177 245.887 386.207 241.709 385.475 238.459C383.904 231.538 380.681 225.139 376.103 219.854C374.961 218.257 373.479 216.956 371.772 216.054C370.065 215.152 368.181 214.673 366.266 214.654C361.935 214.305 357.436 214.702 353.554 216.723C351.37 217.962 349.324 219.448 347.454 221.154L336.778 230.207C335.751 230.977 334.872 231.939 334.185 233.045C333.727 233.97 333.452 234.981 333.377 236.018C333.104 238.983 333.632 241.968 334.901 244.638C336.17 247.308 338.13 249.558 340.56 251.135C340.509 248.791 341.129 246.485 342.342 244.509C343.554 242.533 345.304 240.976 347.37 240.037C347.694 240.318 347.956 240.668 348.138 241.063C348.321 241.458 348.421 241.889 348.43 242.328L350.68 238.158C351.014 237.399 351.542 236.75 352.205 236.279C353.593 235.487 355.324 236.422 356.506 237.54C357.688 238.657 358.839 240.053 360.425 240.227L360.486 234.02" fill="black"/>
<path d="M360.296 238.206C359.875 234.382 360.775 230.528 362.835 227.33C362.149 233.671 366.747 240.219 372.802 241.44C372.544 241.21 372.361 240.904 372.275 240.563C372.189 240.221 372.205 239.861 372.321 239.53C373.885 241.369 375.082 243.541 376.851 245.166C378.62 246.791 381.274 247.75 383.356 246.593C386.185 245.007 386.215 240.83 385.483 237.587C383.912 230.666 380.689 224.267 376.111 218.983C374.691 217.183 372.901 215.736 370.872 214.749C369.404 214.185 367.861 213.859 366.297 213.782C361.966 213.434 357.467 213.822 353.585 215.843C351.402 217.088 349.357 218.577 347.485 220.283L336.809 229.335C335.78 230.103 334.9 231.066 334.216 232.173C333.757 233.097 333.482 234.109 333.408 235.146C333.136 238.11 333.664 241.093 334.933 243.762C336.201 246.431 338.161 248.68 340.591 250.255C340.542 247.912 341.162 245.607 342.375 243.631C343.587 241.655 345.336 240.098 347.401 239.157C347.723 239.439 347.984 239.789 348.167 240.184C348.35 240.579 348.45 241.01 348.461 241.448L350.703 237.294C351.035 236.534 351.563 235.884 352.228 235.415C353.616 234.623 355.347 235.558 356.529 236.676C357.711 237.794 358.862 239.181 360.448 239.363L360.509 233.148" fill="#3F3D56"/>
<path d="M370.926 385.356C368.966 384.325 336.557 389.581 336.557 389.581C336.557 389.581 331.219 387.995 318.317 385.792C305.414 383.588 304.591 370.477 304.591 370.477L303.18 344.23L307.534 340.267L326.186 352.95C326.186 352.95 326.476 359.363 326.186 360.52C326.003 361.313 325.515 362.256 325.561 362.898C325.575 363.072 325.644 363.236 325.757 363.365C325.87 363.494 326.021 363.581 326.186 363.612C327.452 363.945 344.701 366.846 344.701 366.846C344.701 366.846 384.682 364 394.649 377.999C395.439 379.027 396.036 380.199 396.41 381.456C398.881 391.024 372.702 386.267 370.926 385.356Z" fill="#FBBEBE"/>
<path opacity="0.1" d="M396.433 381.511C394.908 382.217 393.963 382.724 393.963 382.724C393.963 382.724 379.657 382.288 371.62 379.26C363.582 376.232 353.814 376.771 353.814 376.771C353.814 376.771 320.322 370.778 325.515 362.954C325.529 363.128 325.598 363.292 325.711 363.421C325.824 363.55 325.975 363.636 326.141 363.667C327.406 364 344.656 366.902 344.656 366.902C344.656 366.902 384.637 364.056 394.603 378.055C395.417 379.077 396.038 380.249 396.433 381.511Z" fill="black"/>
<path d="M410.342 335.328C410.342 335.328 412.31 349.763 412.447 350.937C412.584 352.11 413.294 366.244 412.447 367.853C411.601 369.462 410.342 372.078 410.342 372.078C410.342 372.078 411.746 375.138 406.133 376.311C400.521 377.484 393.932 380.972 393.932 380.972C393.932 380.972 379.619 380.536 371.627 377.476C363.636 374.417 353.814 374.995 353.814 374.995C353.814 374.995 311.301 367.409 329.541 358.15C347.782 348.891 360.684 361.432 360.684 361.432L381.022 360.124C381.022 360.124 388.602 355.304 390.706 355.748C392.193 355.945 393.702 355.692 395.053 355.019L395.198 339.704L410.342 335.328Z" fill="#FBBEBE"/>
<path opacity="0.1" d="M307.214 299.894L303.142 299.672L290.804 349.613C290.804 349.613 304.126 346.109 309.868 349.613C315.61 353.116 326.141 353.838 326.141 353.838L322.214 314.028L307.214 299.894Z" fill="black"/>
<path d="M307.214 299.014L303.142 298.792L290.804 348.732C290.804 348.732 304.126 345.229 309.868 348.732C315.61 352.236 326.141 352.958 326.141 352.958L322.214 313.148L307.214 299.014Z" fill="#6C63FF"/>
<path opacity="0.1" d="M400.529 309.953L406.134 311.269C406.134 311.269 420.447 332.672 421.568 333.869C422.689 335.066 416.23 339.418 413.569 339.418C410.907 339.418 397.86 341.004 394.07 344.666C390.28 348.328 391.858 329.898 391.858 329.478C391.858 329.058 396.563 317.429 396.563 317.429L400.529 309.953Z" fill="black"/>
<path d="M400.529 309.082L406.134 310.39C406.134 310.39 420.447 331.832 421.568 332.998C422.689 334.163 416.23 338.546 413.569 338.546C410.907 338.546 397.86 340.132 394.07 343.794C390.28 347.456 391.858 329.026 391.858 328.606C391.858 328.186 396.594 316.517 396.594 316.517L400.529 309.082Z" fill="#6C63FF"/>
<g opacity="0.1">
<path opacity="0.1" d="M362.797 227.401C362.764 226.793 362.777 226.183 362.835 225.578C361.674 227.389 360.875 229.424 360.486 231.563V233.402C360.486 233.402 360.486 233.362 360.486 233.338V233.774C360.486 235.058 360.486 236.351 360.448 237.635H360.341V238.229C360.341 238.023 360.341 237.825 360.303 237.619C358.778 237.365 357.688 236.033 356.551 234.971C355.415 233.909 353.638 232.894 352.251 233.711C351.586 234.179 351.058 234.829 350.726 235.59L348.461 239.743C348.451 239.306 348.351 238.876 348.168 238.483C347.985 238.089 347.724 237.74 347.401 237.46C345.335 238.4 343.585 239.956 342.372 241.933C341.16 243.909 340.54 246.215 340.591 248.558C338.508 247.201 336.765 245.348 335.506 243.152C334.248 240.957 333.51 238.481 333.354 235.93C333.222 238.779 333.823 241.612 335.095 244.138C336.367 246.665 338.264 248.792 340.591 250.302C340.542 247.959 341.163 245.654 342.375 243.678C343.587 241.703 345.336 240.145 347.401 239.204C347.723 239.487 347.984 239.837 348.167 240.232C348.35 240.626 348.45 241.057 348.461 241.495L350.703 237.341C351.035 236.581 351.563 235.931 352.228 235.463C353.616 234.67 355.347 235.605 356.529 236.723C357.711 237.841 358.862 239.228 360.448 239.41C360.448 237.381 360.468 235.357 360.509 233.338C360.883 231.22 361.661 229.202 362.797 227.401Z" fill="black"/>
<path opacity="0.1" d="M360.219 235.383C360.257 234.844 360.318 234.305 360.394 233.798L360.478 231.61C360.249 232.853 360.163 234.119 360.219 235.383Z" fill="black"/>
<path opacity="0.1" d="M383.355 244.84C381.274 245.998 378.62 245.031 376.851 243.414C375.082 241.796 373.884 239.616 372.321 237.777C372.206 238.11 372.19 238.472 372.275 238.814C372.361 239.156 372.545 239.464 372.802 239.696C372.649 239.696 372.504 239.616 372.359 239.577C373.884 241.4 375.097 243.54 376.851 245.126C378.605 246.711 381.274 247.71 383.355 246.553C385.437 245.395 386.032 242.684 385.849 240.045C385.712 242.121 384.995 243.921 383.355 244.84Z" fill="black"/>
<path opacity="0.1" d="M372.314 239.561C369.764 238.839 367.487 237.323 365.789 235.218C364.091 233.112 363.052 230.518 362.812 227.781C362.378 234.004 366.892 240.243 372.802 241.44C372.55 241.213 372.369 240.912 372.282 240.578C372.195 240.243 372.206 239.889 372.314 239.561Z" fill="black"/>
</g>
<path d="M738.526 369.121C738.526 369.121 735.521 368.685 735.521 364.143C735.521 359.601 733.371 351.095 733.371 351.095C733.371 351.095 731.51 336.295 728.94 333.949C726.371 331.602 723.069 317.825 723.069 317.825C723.069 317.825 722.505 310.35 721.353 308.741C720.202 307.131 718.646 303.192 716.351 297.571C714.055 291.951 704.508 288.099 704.508 288.099C704.508 288.099 687.206 277.667 682.302 274.266C681.854 273.984 681.435 273.655 681.052 273.283C680.198 272.126 676.476 272.102 676.476 272.102C676.087 269.541 675.714 266.608 675.592 263.953C675.592 263.667 675.592 263.382 675.592 263.097C681.059 259.737 685.177 254.44 687.19 248.178C687.282 247.877 687.358 247.568 687.442 247.258C687.777 247.151 688.085 246.971 688.348 246.731C688.611 246.49 688.822 246.195 688.967 245.863C689.402 244.841 689.417 243.652 689.966 242.692C690.607 241.567 691.827 240.964 692.788 240.124C695.212 237.976 695.838 234.369 695.723 231.095C695.647 228.432 695.235 225.752 695.395 223.112C695.395 222.891 695.395 222.669 695.441 222.447C695.487 222.058 695.54 221.654 695.609 221.273C695.983 219.308 696.799 217.453 697.256 215.503C697.714 213.552 697.759 211.357 696.692 209.676C695.129 207.211 691.872 206.719 689.013 206.505C685.772 206.22 682.912 206.585 680.8 203.786C679.831 202.325 678.739 200.956 677.536 199.696C677.109 199.284 672.961 196.644 672.961 196.478C668.902 194.516 664.297 194.147 659.997 195.439C657.839 196.089 655.819 197.151 653.63 197.682C648.933 198.84 643.518 197.587 639.523 200.386C637.296 201.971 635.961 204.5 634.711 206.949C633.694 208.968 632.662 210.989 631.615 213.013C629.922 216.335 628.214 219.712 627.505 223.39C627.356 224.193 627.262 225.007 627.223 225.824C627.223 226.117 627.223 226.41 627.223 226.703C627.223 226.83 627.223 226.957 627.223 227.084C627.223 227.353 627.223 227.623 627.268 227.877C627.314 228.13 627.268 228.202 627.322 228.368C627.375 228.535 627.39 228.907 627.436 229.161C627.482 229.415 627.573 229.866 627.665 230.207C627.665 230.358 627.756 230.501 627.802 230.651C627.848 230.802 627.97 231.182 628.069 231.444C628.168 231.705 628.176 231.721 628.237 231.856C628.351 232.133 628.488 232.403 628.626 232.649C628.687 232.752 628.732 232.855 628.793 232.958C629.003 233.329 629.237 233.684 629.495 234.02C631.119 236.137 633.529 237.484 635.306 239.466C635.306 239.545 635.306 239.625 635.306 239.704C635.306 239.918 635.306 240.132 635.306 240.354C635.414 244.774 636.561 249.1 638.645 252.954C640.728 256.809 643.687 260.076 647.263 262.47C647.263 262.772 647.301 263.081 647.316 263.39C647.465 265.74 647.437 268.099 647.232 270.445C646.921 270.066 646.532 269.764 646.094 269.561C645.656 269.358 645.18 269.259 644.7 269.272C644.373 269.255 644.044 269.284 643.724 269.359L643.656 269.304V269.375C641.978 269.803 639.912 271.618 637.937 276.779C637.937 276.779 631.928 283.818 627.352 283.525C622.777 283.231 611.194 290.857 611.194 290.857C611.194 290.857 599.892 298.475 597.467 306.244C596.112 310.65 594.484 314.961 592.595 319.149L578.586 349.05L576.017 372.831C576.017 372.831 577.443 383.382 577.16 384.999C576.878 386.616 583.025 401.123 583.025 401.123C583.025 401.123 603.332 438.206 611.628 440.108L612.223 439.68C612.58 439.867 612.956 440.011 613.344 440.108L615.052 438.863C615.158 440.257 615.112 441.658 614.915 443.041C613.779 446.711 615.349 470.603 617.347 475.288C619.345 479.973 618.636 541.408 618.636 541.408L618.354 546.822C618.354 546.822 618.354 546.997 618.423 547.298L618.354 548.582L618.56 548.693C618.773 550.415 618.704 552.163 618.354 553.861C617.637 556.24 617.347 562.954 617.347 562.954C617.347 562.954 611.628 600.909 614.343 608.534C617.058 616.16 619.353 624.515 619.353 624.515C619.353 624.515 622.213 634.028 619.49 635.613C616.768 637.199 609.058 640.013 610.629 643.968C612.078 647.631 617.576 657.444 618.392 658.879L618.323 659.672L617.203 672.3C617.384 673.967 617.819 675.594 618.491 677.119C619.719 679.878 622.098 682.724 626.643 682.415C627.406 682.359 628.282 682.272 629.144 682.153C637.448 680.988 647.667 677.135 647.667 677.135C647.137 676.786 646.653 676.368 646.226 675.891C645.817 675.48 645.494 674.987 645.275 674.441C645.056 673.896 644.946 673.311 644.952 672.72C645.074 670.413 640.933 659.466 639.896 656.763L639.66 656.16C639.66 656.16 649.1 645.895 647.53 636.81C647.53 636.81 637.082 630.469 640.522 626.981C643.961 623.493 650.107 613.505 650.107 613.505C650.107 613.505 650.389 576.129 650.107 570.556C649.813 566.68 649.99 562.781 650.633 558.951C650.748 558.38 650.885 557.817 651.03 557.254C655.79 558.001 660.597 558.38 665.412 558.388C667.171 558.388 668.95 558.351 670.749 558.277C670.749 558.805 670.772 559.376 670.818 559.989C671.215 569.248 671.954 585.49 672.557 591.523C673.411 600.163 678.131 623.477 678.131 623.477C678.131 623.477 669.125 629.478 679.702 644.293C679.702 644.293 679.702 649.652 679 650.437C678.251 652.979 677.647 655.565 677.193 658.182C676.751 660.964 676.568 663.794 677.285 665.253C679 668.756 689.295 668.471 689.295 668.471C689.378 668.451 689.462 668.438 689.547 668.431C691.49 668.218 693.454 668.409 695.325 668.995C697.196 669.58 698.936 670.547 700.444 671.84C704.356 675.106 719.195 673.679 727.24 672.633C730.389 672.212 732.494 671.84 732.494 671.84C732.595 671.469 732.631 671.083 732.601 670.698C732.517 668.645 730.969 664.143 720.476 660.124C720.476 660.124 710.609 653.227 710.746 647.218H710.525H709.388C710.105 647.195 710.609 647.195 710.609 647.195C710.609 647.195 706.742 632.538 708.321 631.341C709.899 630.144 705.171 613.901 705.171 613.901C705.171 613.901 702.464 586.632 702.312 584.729C702.322 583.09 702.563 581.461 703.029 579.894L702.312 564.935C702.312 564.935 702.175 559.965 702.312 558.348C702.297 556.944 702.19 555.543 701.992 554.155C701.923 553.6 701.854 553.021 701.778 552.45C705.477 551.475 707.879 550.58 707.879 550.58L707.452 498.538C710.593 492.197 711.173 478.277 711.158 468.416C711.158 462.074 710.883 457.381 710.883 457.381L715.176 450.096C715.176 450.096 716.168 441.376 714.597 439.466C713.903 438.602 714.215 437.706 714.787 436.969C715.088 436.712 715.407 436.479 715.741 436.271C715.703 436.216 715.67 436.158 715.641 436.097C715.941 435.837 716.26 435.601 716.595 435.391C716.595 435.391 715.07 432.934 716.435 431.896C717.716 432.799 718.859 433.521 719.729 434.036C719.668 434.615 719.607 434.947 719.607 434.947L719.973 434.155C720.812 434.646 721.323 434.947 721.323 434.947C721.323 434.947 728.048 421.02 727.903 418.974C727.759 416.929 732.479 408.273 732.479 408.273C732.479 408.273 733.051 403.723 735.628 401.82C738.206 399.918 737.626 386.133 737.626 386.133C737.626 386.133 738.343 378.951 740.059 376.026C741.774 373.101 738.526 369.121 738.526 369.121ZM609.836 363.009L609.966 366.331C609.203 365.055 608.654 364.143 608.654 364.143L609.836 363.009Z" fill="url(#paint1_linear)"/>
<path d="M721.719 428.923L720.072 436.216C720.072 436.216 706.88 429.201 704.508 420.322C702.137 411.444 708.481 408.059 708.481 408.059L720.781 413.465L721.719 428.923Z" fill="white"/>
<path opacity="0.1" d="M721.719 428.923L720.072 436.216C720.072 436.216 706.88 429.201 704.508 420.322C702.137 411.444 708.481 408.059 708.481 408.059L720.781 413.465L721.719 428.923Z" fill="black"/>
<path d="M647.682 677.127C647.682 677.127 635.481 681.788 627.093 682.375C622.64 682.684 620.299 679.846 619.094 677.111C618.439 675.603 618.012 673.999 617.828 672.355L618.934 659.791L619.513 653.108L637.334 648.289L639.858 656.319L640.095 656.921C641.101 659.608 645.173 670.5 645.051 672.775C645.042 673.364 645.147 673.948 645.36 674.493C645.574 675.038 645.892 675.532 646.294 675.946C646.707 676.399 647.173 676.796 647.682 677.127Z" fill="white"/>
<path d="M730.984 670.738C731.015 671.122 730.979 671.509 730.877 671.88C730.877 671.88 704.783 676.398 699.445 671.88C697.944 670.56 696.195 669.58 694.31 669.002C692.424 668.425 690.444 668.263 688.494 668.526C688.494 668.526 678.398 668.812 676.713 665.356C676.011 663.905 676.194 661.091 676.629 658.324C677.073 655.722 677.664 653.149 678.398 650.619L678.802 650.286L681.204 648.281L709.327 647.417H709.541C709.404 653.394 719.081 660.251 719.081 660.251C729.383 664.214 730.9 668.693 730.984 670.738Z" fill="white"/>
<path opacity="0.1" d="M730.992 670.738C731.019 671.123 730.98 671.509 730.877 671.88C730.877 671.88 704.782 676.398 699.452 671.88C697.951 670.559 696.2 669.578 694.314 669.001C692.427 668.423 690.444 668.262 688.494 668.526C688.494 668.526 678.39 668.812 676.705 665.356C676.011 663.905 676.186 661.091 676.621 658.316C680.51 658.721 686.649 659.727 689.058 662.137C692.703 665.784 698.88 669.43 702.662 669.723C705.652 669.914 723.427 670.5 730.992 670.738Z" fill="black"/>
<path opacity="0.1" d="M647.682 677.127C647.682 677.127 635.481 681.788 627.093 682.375C622.639 682.684 620.298 679.846 619.093 677.111C622.205 678.197 626.513 679.331 628.778 678.292C631.462 677.048 640.979 676.255 646.317 675.914C646.719 676.378 647.178 676.786 647.682 677.127Z" fill="black"/>
<path d="M665.785 301.472C655.72 297.405 642.771 283.969 646.005 277.691C646.719 276.105 647.146 274.396 647.263 272.649C647.471 270.277 647.501 267.892 647.354 265.515C647.127 261.619 646.677 257.741 646.005 253.901C646.005 253.901 677.43 254.639 675.6 259.45C675.066 260.869 674.974 263.319 675.127 266.054C675.279 268.788 675.653 271.904 676.049 274.528C676.591 278.119 677.147 280.869 677.147 280.869C677.147 280.869 675.218 283.668 674.097 283.818C672.976 283.969 680.228 307.298 665.785 301.472Z" fill="#CF6F80"/>
<path opacity="0.1" d="M640.064 656.882L639.828 657.151C630.433 645.34 619.071 660.068 619.071 660.068L618.903 659.751L619.483 653.069L637.303 648.249L639.828 656.279L640.064 656.882Z" fill="black"/>
<path opacity="0.1" d="M709.556 648.249C709.556 648.249 702.693 648.106 699.033 651.467C695.373 654.828 677.681 652.189 678.444 651.467C678.666 651.101 678.802 650.686 678.84 650.255L681.242 648.249L709.366 647.385C709.472 647.94 709.556 648.249 709.556 648.249Z" fill="black"/>
<path d="M651.754 555.494C651.244 556.808 650.856 558.17 650.595 559.561C649.959 563.371 649.782 567.248 650.069 571.103C650.351 576.652 650.069 613.838 650.069 613.838C650.069 613.838 644.037 623.754 640.666 627.25C637.296 630.746 647.529 637.024 647.529 637.024C649.055 646.069 639.812 656.279 639.812 656.279C630.418 644.468 619.055 659.188 619.055 659.188C619.055 659.188 612.879 648.09 611.338 644.127C609.798 640.163 617.37 637.428 620.031 635.811C622.693 634.194 619.894 624.713 619.894 624.713C619.894 624.713 617.652 616.398 614.983 608.812C612.314 601.226 617.927 563.469 617.927 563.469C617.927 563.469 618.217 556.755 618.91 554.416C619.257 552.728 619.326 550.992 619.116 549.279C619.071 548.701 619.017 548.225 618.979 547.892C618.941 547.559 618.91 547.417 618.91 547.417L619.017 547.226L622.83 539.838C622.83 539.838 653.584 550.841 651.754 555.494Z" fill="#6C63FF"/>
<path d="M709.556 647.377C709.556 647.377 702.693 647.226 699.033 650.548C695.372 653.869 677.681 651.277 678.443 650.548C679.206 649.819 679.137 644.428 679.137 644.428C668.759 629.692 677.612 623.715 677.612 623.715C677.612 623.715 672.983 600.528 672.145 591.927C671.557 585.927 670.833 569.732 670.444 560.56C670.276 556.596 670.177 553.862 670.177 553.862L678.581 552.125L679.671 551.904L700.123 547.631C700.123 547.631 700.687 551.594 701.069 554.837C701.261 556.22 701.366 557.616 701.381 559.014C701.252 560.6 701.381 565.57 701.381 565.57L702.083 580.441C701.63 582.002 701.394 583.622 701.381 585.253C701.526 587.155 704.188 614.274 704.188 614.274C704.188 614.274 708.816 630.461 707.238 631.626C705.659 632.791 709.556 647.377 709.556 647.377Z" fill="#6C63FF"/>
<path opacity="0.1" d="M675.599 259.474C675.065 260.893 674.974 263.342 675.126 266.077C670.917 268.712 666.078 270.059 661.166 269.964C656.253 269.869 651.466 268.335 647.354 265.538C647.127 261.643 646.676 257.765 646.004 253.925C646.004 253.925 677.429 254.662 675.599 259.474Z" fill="black"/>
<path d="M687.732 241.971C687.815 249.163 685.146 256.095 680.312 261.242C675.478 266.389 668.876 269.328 661.957 269.415C655.038 269.501 648.37 266.726 643.419 261.702C638.468 256.677 635.64 249.813 635.557 242.621C635.557 242.399 635.557 242.193 635.557 241.971C635.557 234.777 638.306 227.877 643.2 222.79C648.094 217.703 654.731 214.845 661.652 214.845C668.573 214.845 675.21 217.703 680.104 222.79C684.998 227.877 687.747 234.777 687.747 241.971H687.732Z" fill="#CF6F80"/>
<path opacity="0.1" d="M665.785 301.472C655.72 297.405 642.771 283.969 646.005 277.691C646.719 276.105 647.146 274.396 647.263 272.649L661.042 284.429L669.568 291.698L676.049 274.551C676.591 278.142 677.147 280.893 677.147 280.893C677.147 280.893 675.218 283.691 674.097 283.842C672.976 283.993 680.228 307.298 665.785 301.472Z" fill="black"/>
<path d="M701.42 353.528L689.913 554.48L674.905 555.502L636.038 438.982L642.413 300.647L643.762 271.42L661.042 286.172L669.567 293.441L676.24 275.788L688.647 287.028L701.42 353.528Z" fill="#6C63FF"/>
<path opacity="0.1" d="M651.754 555.494C651.244 556.808 650.856 558.17 650.595 559.561C639.664 557.811 629.048 554.367 619.101 549.343L618.895 549.232L618.964 547.956V547.29L622.777 539.902C622.777 539.902 653.584 550.841 651.754 555.494Z" fill="black"/>
<path opacity="0.1" d="M678.832 559.593C676.041 560.089 673.225 560.425 670.399 560.6C670.231 556.636 670.132 553.901 670.132 553.901L678.581 552.125L678.832 559.593Z" fill="black"/>
<path opacity="0.1" d="M701.1 554.836C695.678 556.303 687.297 557.952 679.809 556.921L679.702 551.903L700.154 547.631C700.154 547.631 700.695 551.563 701.1 554.836Z" fill="black"/>
<path opacity="0.1" d="M679.671 557.841C648.406 563.39 619.772 547.48 619.772 547.48L620.047 542.09C620.047 542.09 620.756 480.98 618.788 476.295C616.821 471.61 615.288 447.884 616.402 444.262C617.515 440.639 612.337 385.942 612.337 385.942L611.498 363.747L580.775 350.77L594.501 321.02C596.354 316.85 597.949 312.56 599.274 308.178C601.661 300.449 612.741 292.863 612.741 292.863C612.741 292.863 624.103 285.284 628.595 285.57C633.086 285.855 638.973 278.864 638.973 278.864C643.32 267.346 647.255 272.522 647.255 272.522C647.255 273.077 647.255 272.522 647.041 274.226C645.516 286.87 671.702 326.822 672.076 327.536L674.6 390.683L677.124 470.595L679.671 557.841Z" fill="black"/>
<path d="M678.833 557.841C647.568 563.39 618.926 547.48 618.926 547.48L619.208 542.09C619.208 542.09 619.909 480.98 617.942 476.295C615.975 471.61 614.442 447.861 615.563 444.206C616.684 440.552 611.476 385.911 611.476 385.911L610.629 363.715L579.913 350.738L593.639 320.988C595.488 316.819 597.083 312.532 598.413 308.154C600.8 300.449 611.918 292.855 611.918 292.855C611.918 292.855 623.28 285.277 627.764 285.562C632.248 285.847 638.165 278.864 638.165 278.864C642.519 267.346 647.316 272.522 647.316 272.522C647.316 273.077 646.858 273.315 647.102 274.226C650.458 286.489 670.925 326.822 671.298 327.536L673.823 390.683L676.293 470.635L678.833 557.841Z" fill="white"/>
<path opacity="0.1" d="M670.406 329.319C667.043 327.861 649.23 306.719 649.23 306.719V301.907C648.582 300.322 644.723 301.289 641.604 302.399L642.946 273.172L644.471 274.488C647.804 286.743 670.04 328.614 670.406 329.319Z" fill="black"/>
<path d="M671.253 327.575C667.882 326.109 650.069 304.975 650.069 304.975V300.156C649.421 298.57 645.57 299.537 642.443 300.647L643.762 271.452L645.288 272.76C648.651 284.999 670.879 326.862 671.253 327.575Z" fill="white"/>
<path opacity="0.1" d="M619.772 433.005C620.192 433.005 641.513 430.675 641.513 430.675C641.513 430.675 654.423 457.072 653.577 463.485C652.73 469.898 651.198 475.59 646.004 474.583C640.811 473.576 618.057 475.376 618.057 475.376L619.772 433.005Z" fill="black"/>
<path d="M618.926 431.254C619.353 431.254 640.674 428.923 640.674 428.923C640.674 428.923 653.576 455.36 652.738 461.701C651.899 468.043 650.351 473.806 645.165 472.799C639.98 471.793 617.21 473.592 617.21 473.592L618.926 431.254Z" fill="white"/>
<path d="M634.993 418.895C634.993 418.895 654.56 429.834 654.98 433.164C655.399 436.493 645.021 431.705 642.779 431.118C641.302 430.754 639.8 430.51 638.287 430.389L623.333 430.809L634.993 418.895Z" fill="#CF6F80"/>
<path opacity="0.1" d="M664.939 330.683C666.076 330.683 666.998 329.724 666.998 328.542C666.998 327.36 666.076 326.402 664.939 326.402C663.802 326.402 662.88 327.36 662.88 328.542C662.88 329.724 663.802 330.683 664.939 330.683Z" fill="black"/>
<path d="M664.939 329.811C666.076 329.811 666.998 328.853 666.998 327.671C666.998 326.489 666.076 325.53 664.939 325.53C663.802 325.53 662.88 326.489 662.88 327.671C662.88 328.853 663.802 329.811 664.939 329.811Z" fill="#3F3D56"/>
<path opacity="0.1" d="M668.729 423.334C669.866 423.334 670.788 422.376 670.788 421.194C670.788 420.012 669.866 419.054 668.729 419.054C667.592 419.054 666.67 420.012 666.67 421.194C666.67 422.376 667.592 423.334 668.729 423.334Z" fill="black"/>
<path d="M668.729 422.454C669.866 422.454 670.788 421.496 670.788 420.314C670.788 419.132 669.866 418.174 668.729 418.174C667.592 418.174 666.67 419.132 666.67 420.314C666.67 421.496 667.592 422.454 668.729 422.454Z" fill="#3F3D56"/>
<path opacity="0.1" d="M666.998 377.009C668.135 377.009 669.056 376.05 669.056 374.868C669.056 373.686 668.135 372.728 666.998 372.728C665.86 372.728 664.939 373.686 664.939 374.868C664.939 376.05 665.86 377.009 666.998 377.009Z" fill="black"/>
<path d="M666.998 376.136C668.135 376.136 669.056 375.178 669.056 373.996C669.056 372.814 668.135 371.856 666.998 371.856C665.86 371.856 664.939 372.814 664.939 373.996C664.939 375.178 665.86 376.136 666.998 376.136Z" fill="#3F3D56"/>
<path d="M714.459 429.946C714.459 429.946 715.862 432.134 714.459 433.117C713.056 434.099 714.597 436.62 714.597 436.62C714.597 436.62 711.096 438.745 712.637 440.671C714.177 442.597 713.201 451.246 713.201 451.246L708.992 458.531C708.992 458.531 709.243 463.2 709.259 469.51C709.259 479.355 708.702 493.196 705.621 499.506L706.033 551.277C706.033 551.277 691.293 556.882 678.955 555.17L677.125 472.094C677.125 472.094 679.794 424.983 680.777 415.946C681.353 411.255 681.587 406.525 681.479 401.797C681.479 401.797 681.059 387.655 679.649 381.099C679.649 381.099 678.124 352.657 677.971 344.785C677.902 341.02 678.093 330.033 678.307 319.585C678.543 308.162 678.81 297.389 678.81 297.389L676.026 274.488C676.026 274.488 678.81 274.203 679.649 275.36C680.024 275.725 680.433 276.051 680.869 276.335C685.68 279.712 702.655 290.096 702.655 290.096C702.655 290.096 712.05 293.981 714.299 299.545C716.549 305.11 718.112 309.058 719.202 310.643C720.293 312.229 720.888 319.68 720.888 319.68C720.888 319.68 724.121 333.394 726.645 335.717C729.169 338.039 730.984 352.784 730.984 352.784L708.679 371.016C708.679 371.016 706.719 401.345 706.3 402.518C705.881 403.691 714.459 429.946 714.459 429.946Z" fill="white"/>
<path d="M715.306 429.946C715.306 429.946 716.701 432.133 715.306 433.116C713.91 434.099 715.435 436.62 715.435 436.62C715.435 436.62 711.935 438.745 713.476 440.671C715.016 442.597 714.04 451.246 714.04 451.246L709.846 458.531C709.846 458.531 710.098 463.2 710.12 469.509C710.12 479.355 709.564 493.196 706.483 499.506L706.902 551.277C706.902 551.277 692.162 556.882 679.824 555.169L678.001 472.094C678.001 472.094 680.663 424.983 681.654 415.946C682.23 411.255 682.462 406.525 682.348 401.797C682.348 401.797 681.929 387.655 680.525 381.099C680.525 381.099 679 352.657 678.84 344.785C678.772 341.02 678.962 330.033 679.176 319.585C679.412 308.162 679.679 297.389 679.679 297.389L676.003 274.179C676.003 274.179 679.679 274.179 680.525 275.36C680.898 275.729 681.307 276.056 681.746 276.335C686.55 279.712 703.524 290.096 703.524 290.096C703.524 290.096 712.896 293.981 715.184 299.545C717.472 305.11 718.997 309.058 720.087 310.643C721.178 312.229 721.772 319.68 721.772 319.68C721.772 319.68 725.006 333.394 727.53 335.717C730.054 338.039 731.876 352.783 731.876 352.783L709.571 371.016C709.571 371.016 707.612 401.345 707.185 402.518C706.758 403.691 715.306 429.946 715.306 429.946Z" fill="white"/>
<path opacity="0.1" d="M688.594 304.119L690.614 310.223L680.007 321.321C680.244 309.898 680.51 299.125 680.51 299.125L676.835 275.923C676.835 275.923 680.51 275.923 681.357 277.104C681.729 277.473 682.138 277.8 682.577 278.079L691.59 305.102L688.594 304.119Z" fill="black"/>
<path d="M687.732 302.367L689.752 308.463L679.153 319.561C679.382 308.138 679.656 297.365 679.656 297.365L675.973 274.155C675.973 274.155 679.656 274.155 680.495 275.336C680.869 275.703 681.278 276.03 681.715 276.311L690.782 303.358L687.732 302.367Z" fill="white"/>
<path opacity="0.1" d="M687.732 241.971C687.735 244.827 687.302 247.666 686.451 250.382C686.307 250.407 686.16 250.401 686.019 250.366C685.877 250.33 685.744 250.266 685.627 250.176C685.421 243.041 682.051 236.335 677.895 230.635C676.726 228.916 675.311 227.393 673.7 226.117C672.07 224.845 670.042 224.249 668.012 224.444C665.724 224.769 663.703 226.387 661.393 226.593C658.342 226.854 655.612 224.658 652.585 224.555C651.354 224.566 650.14 224.85 649.023 225.389C647.906 225.928 646.913 226.708 646.111 227.679C644.519 229.63 643.337 231.907 642.641 234.361C641.442 238.086 640.789 241.976 640.704 245.903C640.666 248.123 640.46 250.905 638.478 251.713C638.628 250.082 638.45 248.436 637.955 246.881C637.46 245.325 636.659 243.893 635.603 242.677L635.557 242.621C635.557 242.399 635.557 242.193 635.557 241.971C635.557 234.777 638.306 227.877 643.2 222.79C648.094 217.703 654.731 214.845 661.652 214.845C668.573 214.845 675.21 217.703 680.104 222.79C684.998 227.877 687.747 234.777 687.747 241.971H687.732Z" fill="black"/>
<path d="M672.48 198.903C668.518 196.966 664.011 196.599 659.807 197.873C657.694 198.523 655.704 199.577 653.561 200.108C648.986 201.258 643.648 200.013 639.721 202.796C637.54 204.381 636.228 206.886 635.008 209.327L631.958 215.36C630.296 218.665 628.618 222.027 627.924 225.665C627.23 229.304 627.649 233.378 629.869 236.311C631.478 238.436 633.872 239.775 635.626 241.781C636.68 243.004 637.478 244.44 637.972 245.999C638.465 247.559 638.643 249.207 638.493 250.841C640.476 250.049 640.674 247.251 640.72 245.031C640.805 241.105 641.458 237.214 642.657 233.489C643.353 231.035 644.534 228.758 646.126 226.807C646.928 225.835 647.921 225.053 649.038 224.513C650.154 223.973 651.369 223.688 652.6 223.675C655.651 223.786 658.388 225.982 661.408 225.713C663.696 225.514 665.724 223.897 668.027 223.572C670.057 223.373 672.087 223.969 673.716 225.245C675.328 226.517 676.74 228.041 677.902 229.763C682.066 235.471 685.444 242.145 685.642 249.304C686.504 249.954 687.747 249.097 688.174 248.083C688.601 247.068 688.616 245.879 689.157 244.912C689.783 243.794 690.98 243.192 691.918 242.352C694.297 240.219 694.892 236.628 694.8 233.37C694.709 230.112 694.099 226.807 694.694 223.604C695.052 221.646 695.86 219.799 696.303 217.857C696.745 215.915 696.798 213.735 695.754 212.062C694.228 209.613 691.018 209.121 688.22 208.891C685.04 208.606 682.195 208.971 680.167 206.188C679.212 204.738 678.141 203.375 676.964 202.114C676.545 201.694 672.48 199.078 672.48 198.903Z" fill="#512E4E"/>
<path opacity="0.1" d="M589.575 366.069L581.614 350.762L579.09 374.385C579.09 374.385 580.493 384.88 580.211 386.489C579.929 388.098 585.961 402.526 585.961 402.526C585.961 402.526 605.886 439.426 614.023 441.321L641.475 420.901L634.185 411.277C634.185 411.277 631.661 410.255 631.028 411.277C631.028 411.277 617.485 387.068 616.089 385.324C614.694 383.58 614.961 380.068 614.961 380.068C614.961 380.068 612.856 377.738 613.558 375.55C614.259 373.362 609.531 365.784 609.531 365.784L613.878 361.559L589.575 366.069Z" fill="black"/>
<path d="M582.033 349.01L579.928 350.762L577.404 374.385C577.404 374.385 578.807 384.88 578.525 386.489C578.243 388.099 584.283 402.526 584.283 402.526C584.283 402.526 604.201 439.426 612.337 441.321L639.835 420.901L632.537 411.277C632.537 411.277 630.013 410.255 629.38 411.277C629.38 411.277 615.845 387.068 614.442 385.324C613.039 383.58 613.321 380.068 613.321 380.068C613.321 380.068 611.216 377.738 611.918 375.55C612.619 373.362 607.846 365.784 607.846 365.784L612.192 361.559L582.033 349.01Z" fill="white"/>
<path opacity="0.1" d="M712.637 441.582C714.162 443.509 713.201 452.165 713.201 452.165L708.992 459.402C708.992 459.402 709.243 464.079 709.259 470.389L702.182 472.688C701.541 472.896 700.862 472.941 700.202 472.821C699.541 472.7 698.917 472.417 698.383 471.995C697.849 471.573 697.419 471.024 697.13 470.395C696.841 469.765 696.701 469.073 696.722 468.376L697.95 427.472L714.459 434.028C713.056 435.043 714.597 437.532 714.597 437.532C714.597 437.532 711.096 439.656 712.637 441.582Z" fill="black"/>
<path d="M713.476 440.71C715.001 442.629 714.04 451.285 714.04 451.285L709.846 458.53C709.846 458.53 710.098 463.199 710.121 469.509L702.914 471.848C702.289 472.052 701.625 472.097 700.979 471.98C700.333 471.863 699.723 471.587 699.201 471.175C698.678 470.763 698.258 470.227 697.976 469.612C697.693 468.996 697.556 468.32 697.577 467.639L698.804 426.592L715.306 433.164C713.895 434.178 715.436 436.668 715.436 436.668C715.436 436.668 711.936 438.784 713.476 440.71Z" fill="white"/>
<path d="M718.951 421.194C718.951 421.194 717.83 428.638 715.023 429.074C712.217 429.51 710.959 441.115 708.16 440.711C705.362 440.306 707.215 429.914 707.314 427.9C707.413 425.887 704.264 417.548 706.612 415.653C708.961 413.758 716.434 415.653 716.434 415.653L718.951 421.194Z" fill="#CF6F80"/>
<path opacity="0.1" d="M724.884 363.881L730.168 352.783C730.168 352.783 732.281 361.242 732.281 365.76C732.281 370.278 735.224 370.722 735.224 370.722C735.224 370.722 738.45 374.686 736.749 377.579C735.049 380.473 734.37 387.639 734.37 387.639C734.37 387.639 734.927 401.345 732.403 403.239C729.879 405.134 729.314 409.66 729.314 409.66C729.314 409.66 724.686 418.261 724.83 420.306C724.975 422.351 718.379 436.2 718.379 436.2C718.379 436.2 721.605 418.99 702.808 411.555C702.808 411.555 702.663 405.72 704.066 404.119C705.469 402.518 707.657 401.741 706.285 393.687C704.912 385.633 705.888 375.923 705.888 373.98C705.888 372.038 710.098 359.934 710.098 359.934L724.884 363.881Z" fill="black"/>
<path d="M727.232 351.198L731.853 352.784C731.853 352.784 733.965 361.242 733.965 365.76C733.965 370.279 736.909 370.723 736.909 370.723C736.909 370.723 740.135 374.686 738.434 377.58C736.734 380.473 736.047 387.639 736.047 387.639C736.047 387.639 736.611 401.345 734.087 403.239C731.563 405.134 731.037 409.66 731.037 409.66C731.037 409.66 726.408 418.261 726.553 420.306C726.698 422.352 720.094 436.2 720.094 436.2C720.094 436.2 723.32 418.991 704.523 411.555C704.523 411.555 704.386 405.721 705.789 404.119C707.192 402.518 709.381 401.741 708.008 393.687C706.635 385.633 707.611 375.923 707.611 373.981C707.611 372.038 711.821 359.934 711.821 359.934L727.232 351.198Z" fill="white"/>
<path opacity="0.1" d="M625.141 638.847C625.141 638.847 632.507 634.036 637.342 637.531C642.176 641.027 625.141 638.847 625.141 638.847Z" fill="black"/>
<path opacity="0.1" d="M682.394 623.969C682.394 623.969 688.914 623.097 694.389 629.224C699.864 635.352 682.394 623.969 682.394 623.969Z" fill="black"/>
<g opacity="0.1">
<path opacity="0.1" d="M691.918 240.608C690.98 241.456 689.775 242.05 689.15 243.168C688.616 244.127 688.601 245.316 688.174 246.339C687.747 247.361 686.504 248.21 685.634 247.56C685.436 240.425 682.058 233.727 677.902 228.019C676.74 226.299 675.328 224.778 673.716 223.509C672.085 222.23 670.053 221.631 668.019 221.828C665.732 222.153 663.718 223.77 661.408 223.977C658.358 224.238 655.62 222.042 652.593 221.939C651.363 221.949 650.149 222.233 649.034 222.772C647.918 223.31 646.927 224.092 646.126 225.063C644.534 227.014 643.353 229.291 642.657 231.745C641.458 235.47 640.805 239.36 640.72 243.287C640.674 245.499 640.476 248.257 638.508 249.082C638.554 249.67 638.554 250.261 638.508 250.849C640.499 250.057 640.697 247.258 640.743 245.039C640.828 241.112 641.481 237.222 642.679 233.497C643.375 231.042 644.557 228.766 646.149 226.814C646.95 225.844 647.941 225.062 649.057 224.522C650.172 223.982 651.385 223.696 652.616 223.683C655.666 223.794 658.411 225.99 661.431 225.721C663.719 225.522 665.747 223.905 668.042 223.58C670.075 223.381 672.106 223.977 673.739 225.253C675.351 226.524 676.763 228.049 677.925 229.771C682.081 235.479 685.459 242.153 685.657 249.311C686.527 249.961 687.77 249.105 688.197 248.091C688.624 247.076 688.639 245.887 689.173 244.92C689.798 243.802 691.003 243.2 691.941 242.359C694.32 240.227 694.915 236.636 694.823 233.378C694.823 233.275 694.823 233.18 694.823 233.077C694.671 235.915 693.946 238.792 691.918 240.608Z" fill="black"/>
<path opacity="0.1" d="M635.618 240.053C633.872 238.047 631.478 236.7 629.869 234.575C628.51 232.7 627.735 230.437 627.65 228.091C627.41 231.025 628.198 233.949 629.869 236.327C631.478 238.452 633.872 239.791 635.618 241.797C637.305 243.757 638.319 246.244 638.501 248.868C638.615 247.272 638.419 245.669 637.924 244.155C637.429 242.64 636.644 241.245 635.618 240.053Z" fill="black"/>
<path opacity="0.1" d="M696.303 216.113C695.853 218.055 695.052 219.902 694.686 221.86C694.466 223.184 694.387 224.529 694.45 225.871C694.475 225.113 694.554 224.358 694.686 223.612C695.052 221.654 695.853 219.807 696.303 217.865C696.562 216.793 696.647 215.684 696.555 214.583C696.506 215.098 696.421 215.61 696.303 216.113Z" fill="black"/>
</g>
<path opacity="0.1" d="M101.841 664.983C142.878 664.983 176.145 659.429 176.145 652.577C176.145 645.726 142.878 640.171 101.841 640.171C60.804 640.171 27.537 645.726 27.537 652.577C27.537 659.429 60.804 664.983 101.841 664.983Z" fill="#6C63FF"/>
<path d="M104.236 414.916H99.4543V526.822H104.236V414.916Z" fill="#535461"/>
<path d="M134.288 526.489L133.983 531.531L133.563 538.665L133.388 541.63L132.961 548.764L132.778 551.729L132.359 558.863L127.532 639.775C127.326 643.256 125.85 646.525 123.406 648.914C120.962 651.303 117.733 652.633 114.377 652.633H89.312C85.9476 652.634 82.7102 651.297 80.2641 648.896C77.818 646.495 76.3487 643.211 76.1578 639.719L71.3308 558.808L70.9114 551.673L70.736 548.709L70.3014 541.574L70.126 538.61L69.7066 531.475L69.4015 526.434C69.3488 525.467 69.4857 524.5 69.804 523.59C70.1223 522.681 70.6154 521.848 71.2531 521.143C71.8909 520.437 72.66 519.875 73.5137 519.488C74.3673 519.102 75.2877 518.9 76.2188 518.895H127.478C128.413 518.901 129.338 519.105 130.194 519.495C131.051 519.885 131.822 520.454 132.459 521.165C133.097 521.876 133.588 522.715 133.903 523.631C134.217 524.546 134.348 525.519 134.288 526.489Z" fill="#3F3D56"/>
<path d="M133.983 531.523L133.556 538.641H70.126L69.699 531.523H133.983Z" fill="#9D9CB5"/>
<path d="M133.38 541.606L132.961 548.725H70.7283L70.3013 541.606H133.38Z" fill="#9D9CB5"/>
<path d="M132.778 551.697L132.359 558.808H71.331L70.9039 551.697H132.778Z" fill="#9D9CB5"/>
<path d="M62.4319 456.866C90.2806 477.809 101.879 510.564 101.879 510.564C101.879 510.564 68.3265 509.367 40.4701 488.423C12.6138 467.48 1 434.749 1 434.749C1 434.749 34.5527 435.922 62.4319 456.866Z" fill="#6C63FF"/>
<path d="M1 434.749C1 434.749 35.8261 454.844 46.9977 471.483C58.1692 488.122 101.849 510.58 101.849 510.58" stroke="#535461" stroke-width="2" stroke-miterlimit="10"/>
<path d="M80.375 414.678C95.5347 426.069 101.849 443.897 101.849 443.897C101.849 443.897 83.5472 443.247 68.4256 431.856C53.304 420.465 46.9519 402.629 46.9519 402.629C46.9519 402.629 65.2229 403.279 80.375 414.678Z" fill="#6C63FF"/>
<path d="M46.9519 402.629C46.9519 402.629 65.9092 413.568 71.9944 422.621C78.0796 431.674 101.849 443.897 101.849 443.897" stroke="#535461" stroke-width="2" stroke-miterlimit="10"/>
<path d="M123.871 442.994C106.462 462.883 102.779 488.875 102.779 488.875C102.779 488.875 127.326 482.613 144.72 462.716C162.114 442.819 165.812 416.834 165.812 416.834C165.812 416.834 141.281 423.105 123.871 442.994Z" fill="#6C63FF"/>
<path d="M165.828 416.842C165.828 416.842 143.149 437.23 137.384 451.277C131.619 465.324 102.779 488.875 102.779 488.875" stroke="#535461" stroke-width="2" stroke-miterlimit="10"/>
<defs>
<linearGradient id="paint0_linear" x1="355.621" y1="662.351" x2="355.621" y2="204.444" gradientUnits="userSpaceOnUse">
<stop stop-color="#808080" stop-opacity="0.25"/>
<stop offset="0.54" stop-color="#808080" stop-opacity="0.12"/>
<stop offset="1" stop-color="#808080" stop-opacity="0.1"/>
</linearGradient>
<linearGradient id="paint1_linear" x1="145100" y1="429133" x2="145100" y2="128997" gradientUnits="userSpaceOnUse">
<stop stop-color="#808080" stop-opacity="0.25"/>
<stop offset="0.54" stop-color="#808080" stop-opacity="0.12"/>
<stop offset="1" stop-color="#808080" stop-opacity="0.1"/>
</linearGradient>
</defs>
</svg>
